<svg xmlns="http://www.w3.org/2000/svg" width="1165" height="263" viewBox="0 0 1165 263" fill="none">
  <g clip-path="url(#clip0_3_156)">
    <path d="M288.513 153.092C298.438 153.092 307.044 159.977 307.044 169.814C307.044 180.423 298.715 186.958 289.346 188.995C287.888 189.276 287.263 190.19 287.263 191.033C287.263 192.016 288.096 193 289.623 193C292.052 193 311 187.379 311 170.095C311 157.729 300.52 150 288.582 150C271.717 150 262 163.631 262 174.802C262 183.093 267.414 187.871 271.023 187.871C280.323 187.871 289.484 161.453 289.484 154.918C289.484 154.075 289.137 153.443 288.513 153.092ZM286.222 153.232C285.806 153.583 285.598 154.145 285.528 154.989C284.557 166.793 275.95 183.655 271.231 183.655C268.455 183.655 265.609 179.299 265.609 174.521C265.609 165.739 273.174 154.497 286.222 153.232Z" fill="#000000" />
    <path d="M344.812 150.86C344.812 150.732 344.876 150.411 345.068 149.834C345.837 147.591 346.926 143.105 346.926 142.016C346.926 140.862 346.029 140.286 345.132 140.286C344.363 140.286 343.53 140.734 343.402 141.824C342.889 145.861 341.735 150.219 340.966 153.615C340.261 156.692 339.492 161.818 339.492 166.304C339.492 169.38 339.749 170.662 341.479 170.662C342.504 170.662 343.466 169.957 343.466 168.355V168.099C343.402 166.689 343.338 165.407 343.338 164.254C343.338 151.821 349.233 148.809 352.694 148.809C358.718 148.809 360.128 158.935 360.128 164.254C360.128 175.084 354.681 185.017 346.157 190.465C345.196 191.041 344.812 191.81 344.812 192.451C344.812 193.348 345.581 194.117 346.67 194.117C347.183 194.117 347.759 193.925 348.336 193.541C359.423 185.722 363.781 174.956 363.781 164.766C363.781 158.101 361.858 145.861 353.014 145.861C348.977 145.861 346.35 148.617 345.516 150.027C345.26 150.411 344.94 150.924 344.812 150.924V150.86Z" fill="#000000" />
    <path d="M405.816 161.236C402.53 171.227 397.502 181.016 392.875 186.246C392.271 186.984 392.003 187.587 392.003 188.191C392.003 189.197 392.875 189.867 393.948 189.867C394.819 189.867 395.691 189.465 396.362 188.526C401.726 180.949 406.352 171.495 409.705 160.766C412.655 160.431 414.466 160.297 415.472 160.297C419.495 160.297 420.299 162.845 420.299 167.136C420.299 171.964 419.293 185.039 411.046 185.039C409.839 185.039 408.565 184.838 407.224 184.436C407.023 184.369 406.822 184.369 406.621 184.369C405.548 184.369 404.81 185.241 404.81 186.112C404.81 188.459 409.169 188.861 410.912 188.861C420.769 188.861 423.92 177.53 423.92 166.667C423.92 159.157 420.299 157.079 416.075 157.079C415.874 157.079 415.807 157.079 410.577 157.548C411.851 153.525 413.125 146.82 413.125 145.814C413.125 144.674 412.186 144.003 411.247 144.003C410.376 144.003 409.437 144.54 409.303 145.68C408.632 150.038 407.559 154.799 406.688 157.95L402.329 158.42C399.848 158.621 397.77 158.621 395.557 158.688C394.417 158.755 393.814 159.627 393.814 160.498C393.814 161.303 394.417 162.175 395.624 162.175C397.3 162.175 399.848 161.973 402.597 161.638L405.816 161.236ZM443.365 171.763C444.371 171.763 445.31 170.891 445.31 169.617C445.31 165.125 434.246 155.067 431.43 155.067C430.357 155.067 429.687 155.872 429.687 156.676C429.687 157.146 429.888 157.615 430.424 157.883C435.989 160.901 440.08 166.332 441.622 170.422C441.957 171.361 442.695 171.763 443.365 171.763Z" fill="#000000" />
    <path d="M474.612 161.875C475.282 160.467 475.953 159.193 476.422 158.322C476.958 157.383 477.16 156.511 477.16 155.908C477.16 154.768 476.489 154.097 475.483 153.963C476.087 149.135 476.958 141.357 476.958 140.352C476.958 139.279 475.953 138.608 474.947 138.608C474.008 138.608 473.136 139.212 473.136 140.486C473.136 143.57 472.667 148.733 472.064 154.701C460.866 158.389 460.799 159.126 460.799 160.266C460.799 161.138 461.402 161.942 462.274 161.942C462.609 161.942 463.012 161.875 463.414 161.607C465.425 160.4 469.65 158.791 471.728 158.12L471.393 161.875C469.046 166.837 462.073 179.778 459.123 184.204C458.854 184.673 458.72 185.075 458.72 185.478C458.72 186.483 459.525 187.087 460.464 187.087C462.073 187.087 462.207 186.752 466.029 178.705C467.035 176.627 468.912 173.542 470.588 171.061C470.253 174.95 470.052 178.571 470.052 181.857C470.052 189.3 470.454 190.641 472.332 190.641C473.405 190.641 474.477 189.903 474.477 188.696C474.477 188.562 474.41 188.361 474.41 188.227C473.874 185.478 473.673 182.125 473.673 178.37C473.673 174.816 473.874 170.994 474.142 167.172C479.439 159.73 487.217 153.896 493.118 153.896C494.995 153.896 501.5 154.03 501.5 168.916C501.5 172.268 501.03 175.688 499.756 178.705C496.538 177.029 493.051 175.956 489.631 175.956C484.401 175.956 480.11 178.705 480.11 182.527C480.11 186.215 484.066 189.166 489.631 189.166C493.654 189.166 497.879 187.422 501.03 183.667C502.438 184.74 503.712 186.014 504.919 187.288C505.321 187.69 505.791 187.892 506.26 187.892C507.333 187.892 508.339 186.953 508.339 185.746C508.339 185.008 508.339 184.07 503.042 180.583C504.517 177.498 505.187 173.207 505.187 168.983C505.187 159.394 502.237 150.745 493.52 150.745C486.145 150.745 478.635 157.517 474.545 162.144L474.612 161.875ZM498.147 181.656C495.934 184.673 492.716 185.947 489.564 185.947C483.328 185.947 483.328 182.662 483.328 182.393C483.328 178.84 489.229 178.84 489.631 178.84C492.515 178.84 495.465 179.979 498.147 181.656Z" fill="#000000" />
    <path d="M553.562 150.062C551.594 148.728 550.959 148.347 548.864 147.205C548.991 150.062 549.054 151.268 549.054 152.728V169.173H544.483V158.76C544.483 156.093 544.483 152.728 544.546 147.586C546.007 146.697 546.451 146.316 546.451 145.998C546.451 145.871 546.324 145.617 545.816 145.236C544.546 143.966 544.102 143.586 542.642 142.443L540.165 144.919H532.8C530.896 143.522 530.324 143.141 528.293 141.744C528.419 145.681 528.483 147.903 528.483 151.078C528.483 172.157 528.419 180.982 528.293 186.697C528.293 187.268 528.483 187.522 529.054 187.522C529.816 187.522 531.594 187.268 531.912 187.141C532.293 187.014 532.419 186.76 532.419 186.189V181.935H540.546V184.665C540.546 185.427 540.737 185.617 541.372 185.617C541.372 185.617 541.372 185.617 541.435 185.617C541.626 185.554 542.007 185.554 542.642 185.554C544.229 185.49 544.673 185.236 544.673 184.411C544.483 179.585 544.483 179.014 544.483 170.633H560.038C558.832 175.585 557.245 178.824 554.07 182.697C550.197 187.458 546.578 190.125 538.642 194.189L539.213 195.204C542.451 193.998 544.039 193.3 545.626 192.538C550.07 190.443 553.372 188.093 556.419 184.855C560.229 180.792 562.578 176.411 563.911 170.824C565.562 175.839 566.388 177.617 568.673 181.49C572.419 187.649 575.213 190.252 581.435 193.49C582.324 191.204 583.15 190.379 585.753 189.173V188.347C578.388 186.252 574.832 184.157 570.578 179.522C568.038 176.665 566.896 174.951 565.054 170.633H585.753C586.324 170.633 586.705 170.443 586.705 170.125C586.705 169.998 586.642 169.808 586.388 169.49C584.546 167.712 584.038 167.141 582.134 165.3C580.737 167.014 580.292 167.585 579.023 169.173H578.007V152.728C579.53 151.839 580.165 151.268 580.165 150.951C580.165 150.76 579.975 150.506 579.467 150.062C577.943 148.855 577.499 148.474 575.911 147.332C574.769 148.474 574.388 148.855 573.245 150.062H565.308C565.308 143.649 565.308 143.649 565.308 141.173C567.404 140.538 567.975 140.284 567.975 139.839C567.975 139.205 567.34 139.078 560.927 138.379C561.181 141.046 561.181 141.046 561.245 150.062H553.562ZM564.229 169.173C564.927 165.3 565.308 159.458 565.308 151.522H573.943V169.173H564.229ZM553.054 169.173V151.522H561.245C561.245 152.03 561.245 152.792 561.245 153.681C561.245 160.157 560.927 165.617 560.292 169.173H553.054ZM540.546 162.189H532.419V146.379H540.546V162.189ZM540.546 163.649V180.474H532.419V163.649H540.546Z" fill="#000000" />
    <path d="M623.72 163.055C622.116 164.659 620.881 165.647 618.598 167.128C614.587 169.843 611.995 171.078 604.96 173.793L605.454 174.719C612.365 173.052 617.796 170.954 622.363 168.115C623.473 169.35 623.659 169.596 624.399 170.769C618.66 175.212 613.106 178.298 605.454 181.322L605.7 182.124C613.661 180.149 619.215 177.804 625.818 173.731C626.374 175.274 626.559 175.953 626.929 177.557C620.326 182.309 614.217 185.456 604.651 188.974L604.96 189.9C614.71 187.431 620.326 185.333 627.361 181.569C627.361 181.877 627.361 182.124 627.361 182.247C627.361 185.148 626.744 188.048 625.88 189.344C625.386 190.085 625.016 190.208 622.98 190.208C622.486 190.208 617.796 189.776 614.155 189.344V190.27C614.649 190.393 615.142 190.517 615.636 190.578L617.24 190.887C618.722 191.196 619.647 191.442 620.203 191.689C621.313 192.306 621.684 193.047 621.684 194.528C624.214 194.343 625.078 194.219 626.25 193.911C627.67 193.479 628.842 192.553 629.398 191.381C630.262 189.591 630.94 186.629 630.94 184.407C630.94 177.928 628.225 171.571 623.597 167.375C625.757 165.894 626.497 165.277 628.781 163.055H629.645C630.632 170.892 632.792 176.755 636.865 182.494C639.58 186.32 641.802 188.542 645.566 190.949C647.109 187.801 648.096 186.999 650.318 186.999L650.565 186.197C646.43 184.963 643.591 183.358 639.889 180.087C637.852 178.298 636.68 177.064 635.322 175.027C638.284 173.669 639.272 173.052 643.345 170.214C644.764 170.46 645.011 170.522 645.319 170.522C645.751 170.522 646.183 170.275 646.183 170.028C646.183 169.596 645.319 168.979 640.938 166.202C639.58 168.918 637.544 171.633 634.767 174.163C632.298 169.967 631.311 167.005 631.002 163.055H640.938V164.659C641 165.091 641.185 165.215 641.678 165.215C642.481 165.215 644.085 165.03 644.394 164.906C644.702 164.783 644.826 164.598 644.826 164.166C644.764 162.129 644.764 162.129 644.702 157.378C644.702 157.131 644.702 156.822 644.702 154.847C646.307 154.292 647.047 153.86 647.047 153.366C647.047 153.181 646.862 152.934 646.368 152.502C644.887 151.268 644.455 150.898 642.789 149.602C641.678 150.774 641.37 151.206 640.321 152.441H627.423C629.83 150.651 631.064 149.417 633.779 146.331C636.556 146.331 637.482 146.146 637.482 145.467C637.482 145.22 637.235 144.973 636.556 144.295C634.767 142.814 634.211 142.382 632.298 140.9C630.94 142.258 630.509 142.69 629.213 144.171H619.894C620.573 143.246 620.881 142.814 621.684 141.579C624.029 141.209 624.893 140.962 624.893 140.407C624.893 139.975 624.461 139.666 623.782 139.481C620.326 138.555 620.326 138.555 618.475 138C615.759 144.665 611.254 150.836 604.96 156.514L605.454 157.316C607.799 155.896 608.663 155.341 610.267 154.107V156.452C610.267 158.118 610.205 158.735 610.082 165.153C610.082 165.77 610.329 165.955 611.008 165.955C611.81 165.955 613.353 165.832 613.661 165.709C613.908 165.647 614.031 165.523 614.155 165.215V163.055H623.72ZM612.242 152.441C614.71 150.281 616.562 148.368 618.845 145.591H629.089C627.67 149.046 626.991 150.404 625.572 152.441H612.242ZM629.151 153.86H640.938V161.636H629.151V153.86ZM625.695 161.636H614.155V153.86H625.695V161.636ZM592.124 169.35C595.209 165.955 596.505 164.289 599.221 159.969V180.211C599.221 184.654 599.097 187.616 598.912 193.479C598.85 194.158 599.159 194.466 599.838 194.466C599.899 194.466 599.961 194.466 600.023 194.466C600.331 194.405 600.702 194.405 601.134 194.405C602.923 194.343 603.232 194.158 603.355 193.355C603.232 183.111 603.232 183.111 603.232 173.916V160.093C604.775 159.599 605.33 159.291 605.33 158.859C605.33 158.303 604.219 157.995 600.64 157.563C604.281 151.33 606.132 147.38 607.984 141.826C610.144 141.456 611.069 141.086 611.069 140.468C611.069 139.79 609.588 139.296 603.787 138.123C603.294 141.888 602.43 145.035 600.517 150.096C597.493 158.056 594.654 163.672 591.26 168.609L592.124 169.35Z" fill="#000000" />
    <path d="M714.342 188.727C706.689 187.369 702.184 185.641 697.371 182C700.765 178.421 702.863 175.274 706.257 168.3C708.541 167.622 709.343 167.251 709.343 166.881C709.343 166.634 709.158 166.387 708.726 166.017C706.874 164.598 706.257 164.166 704.221 162.746C703.233 163.857 702.863 164.227 701.814 165.4H686.695C684.411 165.4 682.807 165.277 680.956 164.845L681.449 167.251C682.683 167.005 683.054 166.943 684.535 166.881H685.707C687.25 173.299 689.225 177.496 692.742 181.939C687.065 187.493 681.634 191.072 674.352 194.219L674.723 195.145C683.301 192.615 689.225 189.468 694.964 184.407C699.099 188.604 703.542 191.566 709.713 194.281C710.207 192.677 710.639 191.998 711.688 191.072C712.552 190.27 713.107 190.023 714.28 189.776L714.342 188.727ZM702.123 166.819C699.839 172.867 698.05 176.014 694.841 179.779C690.891 175.891 688.484 171.88 687.188 166.819H702.123ZM659.171 143.924C661.516 143.677 662.565 143.616 663.861 143.616H679.228C679.598 143.616 679.845 143.492 679.845 143.245C679.845 143.184 679.721 142.937 679.598 142.752C677.5 140.9 676.883 140.345 674.661 138.679C673.365 140.16 672.995 140.592 671.699 142.196H663.861C662.319 142.196 660.652 142.011 658.739 141.579L659.171 143.924ZM656.95 151.947C659.171 151.577 660.035 151.515 662.997 151.515H682.066C682.498 151.515 682.745 151.391 682.745 151.145C682.745 151.021 682.622 150.836 682.498 150.589C680.338 148.8 679.598 148.244 677.253 146.578C676.265 147.75 675.216 148.923 674.229 150.095H662.997C660.159 150.095 658.863 149.972 656.394 149.478L656.95 151.947ZM660.035 159.969C661.887 159.661 662.627 159.599 664.725 159.599H678.61C679.042 159.599 679.289 159.414 679.289 159.229C679.289 159.105 679.166 158.859 679.042 158.673C677.129 156.884 676.451 156.328 674.352 154.6C673.365 155.773 672.316 156.945 671.267 158.18H664.725C663.059 158.18 661.763 158.056 659.542 157.624L660.035 159.969ZM659.974 167.992C661.948 167.745 662.751 167.683 664.725 167.683H678.24C678.425 167.683 678.672 167.498 678.672 167.251C678.672 167.19 678.487 166.881 678.302 166.634C676.389 164.906 675.772 164.413 673.674 162.746C672.192 164.227 671.76 164.721 670.526 166.264H664.725C662.936 166.264 661.64 166.141 659.48 165.647L659.974 167.992ZM663.615 189.776H672.81V190.764C672.81 191.319 672.995 191.504 673.735 191.504C674.784 191.504 676.142 191.319 676.574 191.072C676.883 190.949 676.944 190.764 677.006 190.332C676.944 188.727 676.821 182.432 676.821 180.705C676.821 179.779 676.821 178.977 676.883 177.557C678.61 176.508 678.857 176.323 678.857 175.953C678.857 175.706 678.549 175.274 678.117 174.904C676.821 173.793 676.389 173.423 674.846 172.373C674.044 173.237 673.242 174.101 672.501 174.904H664.108C662.195 173.669 661.64 173.299 659.542 172.127C659.665 175.089 659.727 179.779 659.727 183.05C659.727 185.518 659.727 186.999 659.542 193.849C659.665 194.528 659.974 194.775 660.899 194.775C661.455 194.775 662.442 194.713 662.936 194.59C663.368 194.466 663.553 194.343 663.615 193.849V189.776ZM663.615 176.323H672.81V188.357H663.615V176.323ZM679.042 164.845C682.807 162.376 684.72 160.525 686.571 157.501C688.669 154.107 689.287 151.268 689.719 143.616H698.605V153.366C698.605 155.032 698.605 155.588 698.543 157.192V157.377C698.543 158.982 698.79 159.723 699.592 160.216C700.333 160.648 701.567 160.772 705.517 160.772C712.182 160.772 713.848 160.34 713.848 158.612C713.848 158.056 713.539 157.563 713.107 157.316C711.873 156.699 711.811 156.637 711.811 155.711C711.811 155.711 711.811 155.588 711.811 155.464L712.367 147.504L711.565 147.442C709.651 154.971 709.466 155.711 708.973 156.452C708.479 157.131 707.862 157.316 705.887 157.316C702.801 157.316 702.555 157.254 702.555 156.205V144.973C704.468 143.986 704.838 143.677 704.838 143.245C704.838 142.999 704.715 142.752 704.159 142.196C702.801 141.024 702.308 140.654 700.703 139.419C699.654 140.654 699.284 141.024 698.235 142.196H690.027C688.114 140.777 687.497 140.345 685.337 139.111C685.522 141.086 685.584 141.826 685.584 143.369C685.584 154.045 684.041 158.673 678.549 164.227L679.042 164.845Z" fill="#000000" />
    <path d="M762.258 160.216C762.258 149.725 762.258 149.725 762.258 142.443C764.665 141.579 764.974 141.394 764.974 140.839C764.974 140.222 763.986 139.975 760.716 139.728C760.037 139.666 758.926 139.605 757.507 139.481C757.939 142.135 757.939 142.814 758 160.216H750.41C748.558 160.216 746.707 160.031 745.041 159.661L745.411 161.882C747.324 161.636 748.126 161.574 750.41 161.574H758C758.062 163.302 758.062 165.091 758.062 165.585C758.062 176.755 757.939 186.197 757.753 193.479C757.753 194.158 758.062 194.343 758.926 194.343C760.098 194.343 761.641 194.158 762.073 193.973C762.444 193.849 762.567 193.602 762.629 193.109C762.258 181.137 762.258 178.791 762.258 161.574H777.501C777.871 161.574 778.242 161.327 778.242 161.018C778.242 160.833 778.118 160.525 777.871 160.216C775.65 158.118 774.909 157.501 772.503 155.526C770.651 157.501 770.096 158.118 768.491 160.216H762.258ZM724.182 143.739C725.787 143.554 726.589 143.492 728.44 143.492H745.164C745.534 143.492 745.781 143.307 745.781 143.06C745.781 142.937 745.658 142.752 745.411 142.443C743.251 140.715 742.572 140.16 740.412 138.432C738.87 139.913 738.438 140.407 736.957 142.073H728.44C727.144 142.073 725.17 141.888 723.812 141.641L724.182 143.739ZM721.405 152.255C723.133 152.009 723.935 151.947 726.095 151.947H748.065C748.25 151.947 748.497 151.7 748.497 151.515C748.497 151.453 748.435 151.268 748.25 151.083C746.152 149.17 745.473 148.553 743.189 146.701C741.708 148.306 741.215 148.861 739.734 150.527H726.404C724.676 150.527 722.701 150.342 721.035 150.034L721.405 152.255ZM723.997 160.401C725.787 160.278 726.589 160.216 728.44 160.216H743.868C744.115 160.216 744.362 160.031 744.362 159.846C744.362 159.723 744.3 159.476 744.115 159.291C742.202 157.501 741.585 156.946 739.487 155.403C738.129 156.822 737.759 157.316 736.401 158.797H728.44C726.836 158.797 725.602 158.673 723.627 158.303L723.997 160.401ZM724.121 168.856C726.034 168.671 727.021 168.609 728.44 168.609H743.992C744.239 168.609 744.485 168.424 744.485 168.177C744.485 168.054 744.362 167.868 744.115 167.56C742.264 165.77 741.647 165.215 739.672 163.487C738.314 165.091 737.882 165.585 736.525 167.19H728.44C726.404 167.19 725.416 167.128 723.812 166.758L724.121 168.856ZM728.379 190.085H738.314V192.738C738.376 193.294 738.684 193.541 739.363 193.541C740.104 193.541 741.4 193.417 741.893 193.294C742.387 193.17 742.511 192.923 742.572 192.368C742.449 190.455 742.387 184.716 742.387 180.149C742.387 179.655 742.387 179.162 742.387 178.421C743.621 177.557 744.3 176.817 744.3 176.446C744.3 176.323 744.239 176.2 744.177 176.014C744.177 175.953 744.115 175.829 744.053 175.644L740.351 172.682C739.487 173.669 738.561 174.657 737.697 175.644H728.872C726.836 174.163 726.219 173.731 724.121 172.435C724.306 174.533 724.367 175.336 724.367 177.125C724.367 182.803 724.244 190.393 724.121 193.479C724.182 194.096 724.429 194.281 725.17 194.281C727.823 194.281 728.379 194.096 728.379 193.109V190.085ZM728.379 177.064H738.314V188.665H728.379V177.064Z" fill="#000000" />
    <path d="M802.357 156.143C800.444 160.957 799.95 161.944 797.173 166.696C792.421 166.819 792.236 166.819 791.681 166.819C790.878 166.881 790.385 166.881 789.953 166.881C788.78 166.881 787.855 166.819 786.559 166.696C787.484 171.695 788.04 173.423 788.904 173.423C789.521 173.423 789.829 172.682 789.953 170.769C794.643 170.46 803.653 169.411 809.824 168.547C811.367 168.3 816.242 167.498 823.4 166.326C824.141 167.251 824.326 167.436 825.931 169.596C828.893 173.546 828.893 173.546 829.325 173.546C830.189 173.546 830.929 171.818 830.929 169.72C830.929 168.671 830.682 167.93 830.065 167.19C829.201 166.141 826.98 164.474 824.203 162.623C820.13 160.031 818.957 159.352 816.119 158.18L815.748 158.735C818.525 161.204 819.945 162.561 822.29 165.091C810.194 166.202 806.059 166.511 799.148 166.696C802.295 163.364 802.295 163.364 807.726 156.143H830.312C830.497 156.143 830.682 156.02 830.682 155.835C830.682 155.711 830.559 155.588 830.374 155.403C827.967 153.428 827.165 152.811 825.005 151.083C823.647 152.626 823.215 153.058 821.919 154.724H794.581C790.138 154.292 790.138 154.292 788.965 154.168L789.644 156.575C791.866 156.205 792.853 156.143 794.581 156.143H802.357ZM789.644 145.591C789.768 144.48 789.768 143.986 789.768 142.999C789.768 142.69 789.768 142.196 789.706 141.579H788.657C788.348 143.801 787.731 145.529 786.682 147.504C785.88 148.985 785.324 149.602 782.794 151.453C782.115 151.947 781.93 152.255 781.93 152.873C781.93 154.292 783.288 156.575 784.152 156.575C785.016 156.575 786.62 155.218 787.484 153.675C788.533 151.762 789.089 149.972 789.521 147.01H829.14C828.769 148.985 828.584 149.787 827.844 152.255L828.461 152.626C830.127 151.33 830.436 151.021 832.349 149.232C832.596 148.985 832.966 148.614 833.46 148.121C834.015 147.997 834.694 147.936 835.496 147.812C836.298 147.689 836.915 147.565 837.101 147.442C837.224 147.318 837.347 147.133 837.347 147.01C837.347 146.763 837.224 146.578 836.915 146.393C834.57 144.603 833.83 144.048 831.3 142.382C829.757 144.109 829.757 144.109 828.461 145.591H811.305V141.147C812.601 140.777 813.403 140.53 813.712 140.407C813.959 140.283 814.205 139.975 814.205 139.79C814.205 139.049 812.848 138.741 806.923 138.185C807.109 139.79 807.109 140.345 807.109 142.69V145.591H789.644ZM811.305 179.285V173.855C813.65 173.114 814.02 172.929 814.02 172.497C814.02 171.941 813.588 171.818 806.8 170.831C807.047 173.731 807.109 175.15 807.109 176.94V179.285H792.853C791.557 179.285 788.718 178.977 786.929 178.606L787.608 181.013C790.2 180.766 791.372 180.705 792.73 180.705H807.109V191.196H787.669C786.559 191.196 786.373 191.196 781.745 190.578L782.362 193.047C783.411 192.862 786.497 192.615 787.669 192.615H837.779C838.026 192.615 838.273 192.43 838.273 192.245C838.273 192.059 838.088 191.813 837.779 191.566C835.187 189.468 834.385 188.85 831.793 186.937C830.004 188.727 829.51 189.344 827.905 191.196H811.305V180.705H831.917C832.225 180.705 832.472 180.519 832.472 180.334C832.472 180.211 832.41 180.026 832.225 179.779C829.942 177.742 829.201 177.125 826.733 175.15C825.128 177.002 824.635 177.557 823.215 179.285H811.305Z" fill="#000000" />
    <path d="M290.723 249.794C287.135 245.515 283.313 241.13 279.257 236.641C275.201 232.152 271.145 227.687 267.089 223.246C267.058 224.147 267.026 225.354 266.995 226.866C266.964 228.379 266.948 230.438 266.948 233.045C266.948 233.721 266.956 234.557 266.972 235.555C266.987 236.552 267.003 237.598 267.019 238.692C267.034 239.787 267.058 240.897 267.089 242.023C267.12 243.149 267.151 244.195 267.182 245.161C267.214 246.126 267.245 246.971 267.276 247.695C267.307 248.419 267.338 248.909 267.37 249.167C266.87 249.103 266.324 249.07 265.732 249.07C265.108 249.07 264.53 249.103 264 249.167C264.062 248.845 264.133 248.25 264.211 247.381C264.289 246.512 264.359 245.474 264.421 244.268C264.484 243.061 264.554 241.749 264.632 240.334C264.71 238.918 264.772 237.502 264.819 236.086C264.866 234.67 264.905 233.286 264.936 231.935C264.967 230.583 264.983 229.376 264.983 228.314C264.983 225.225 264.975 222.57 264.959 220.35C264.944 218.13 264.905 216.472 264.842 215.378H265.591C267.494 217.502 269.53 219.779 271.699 222.208C273.867 224.638 276.02 227.035 278.157 229.401C280.294 231.766 282.322 234.002 284.241 236.11C286.16 238.218 287.837 240.012 289.272 241.492V234.927C289.272 231.549 289.249 228.258 289.202 225.056C289.155 221.854 289.054 218.837 288.898 216.006C289.522 216.167 290.052 216.247 290.489 216.247C290.864 216.247 291.363 216.167 291.987 216.006C291.924 216.714 291.854 217.776 291.776 219.191C291.698 220.607 291.62 222.12 291.542 223.729C291.464 225.338 291.394 226.915 291.332 228.459C291.269 230.004 291.238 231.243 291.238 232.176C291.238 232.981 291.238 233.946 291.238 235.072C291.238 236.166 291.246 237.309 291.261 238.499C291.277 239.69 291.293 240.889 291.308 242.095C291.324 243.302 291.339 244.428 291.355 245.474C291.371 246.52 291.378 247.429 291.378 248.202C291.378 248.909 291.378 249.44 291.378 249.794H290.723Z" fill="#000000" />
    <path d="M302.067 238.141C302.067 239.468 302.186 240.747 302.423 241.978C302.66 243.21 303.064 244.307 303.634 245.271C304.203 246.234 304.963 247 305.912 247.568C306.862 248.136 308.032 248.421 309.425 248.421C310.817 248.421 311.988 248.136 312.938 247.568C313.887 247 314.647 246.234 315.216 245.271C315.786 244.307 316.189 243.21 316.427 241.978C316.664 240.747 316.783 239.468 316.783 238.141C316.783 236.815 316.664 235.536 316.427 234.304C316.189 233.073 315.786 231.975 315.216 231.012C314.647 230.049 313.887 229.283 312.938 228.715C311.988 228.146 310.817 227.862 309.425 227.862C308.032 227.862 306.862 228.146 305.912 228.715C304.963 229.283 304.203 230.049 303.634 231.012C303.064 231.975 302.66 233.073 302.423 234.304C302.186 235.536 302.067 236.815 302.067 238.141ZM297.89 238.141C297.89 235.994 298.23 234.17 298.91 232.67C299.591 231.17 300.485 229.954 301.592 229.022C302.7 228.091 303.942 227.412 305.319 226.985C306.695 226.559 308.064 226.346 309.425 226.346C310.817 226.346 312.194 226.559 313.555 226.985C314.916 227.412 316.15 228.091 317.257 229.022C318.365 229.954 319.259 231.17 319.939 232.67C320.62 234.17 320.96 235.994 320.96 238.141C320.96 240.289 320.62 242.113 319.939 243.613C319.259 245.113 318.365 246.328 317.257 247.26C316.15 248.192 314.916 248.847 313.555 249.226C312.194 249.605 310.817 249.794 309.425 249.794C308.064 249.794 306.695 249.605 305.319 249.226C303.942 248.847 302.7 248.192 301.592 247.26C300.485 246.328 299.591 245.113 298.91 243.613C298.23 242.113 297.89 240.289 297.89 238.141Z" fill="#000000" />
    <path d="M336.799 230.722C336.643 230.532 336.34 230.358 335.888 230.199C335.437 230.04 334.978 229.961 334.511 229.961C333.764 229.961 333.095 230.136 332.503 230.484C331.912 230.833 331.414 231.301 331.009 231.888C330.605 232.474 330.293 233.172 330.075 233.981C329.857 234.789 329.749 235.653 329.749 236.573V241.805C329.749 243.93 329.756 245.555 329.772 246.681C329.787 247.807 329.842 248.719 329.935 249.416C329.313 249.353 328.69 249.321 328.068 249.321C327.383 249.321 326.729 249.353 326.107 249.416C326.2 248.338 326.254 246.871 326.27 245.016C326.286 243.161 326.293 240.886 326.293 238.19V236.668C326.293 235.431 326.286 234.004 326.27 232.387C326.254 230.77 326.2 228.915 326.107 226.822C326.449 226.885 326.776 226.941 327.087 226.988C327.398 227.036 327.725 227.06 328.068 227.06C328.348 227.06 328.643 227.036 328.955 226.988C329.266 226.941 329.593 226.885 329.935 226.822C329.811 227.963 329.741 228.867 329.725 229.533C329.71 230.199 329.702 230.833 329.702 231.436L329.795 231.483C331.632 228.058 333.686 226.346 335.958 226.346C336.239 226.346 336.48 226.362 336.682 226.394C336.885 226.425 337.141 226.505 337.453 226.631C337.297 227.012 337.204 227.591 337.172 228.368C337.141 229.145 337.126 229.85 337.126 230.484L336.799 230.722Z" fill="#000000" />
    <path d="M342.599 218.559C342.599 217.894 342.822 217.323 343.267 216.848C343.712 216.372 344.245 216.135 344.868 216.135C345.491 216.135 346.025 216.372 346.47 216.848C346.915 217.323 347.138 217.894 347.138 218.559C347.138 219.225 346.915 219.796 346.47 220.271C346.025 220.746 345.491 220.984 344.868 220.984C344.245 220.984 343.712 220.746 343.267 220.271C342.822 219.796 342.599 219.225 342.599 218.559ZM343.222 235.723C343.222 234.297 343.2 232.799 343.155 231.23C343.111 229.661 343.014 228.195 342.866 226.832C343.697 226.991 344.364 227.07 344.868 227.07C345.373 227.07 346.04 226.991 346.871 226.832C346.722 228.195 346.626 229.661 346.581 231.23C346.537 232.799 346.515 234.297 346.515 235.723V240.668C346.515 242.094 346.537 243.592 346.581 245.161C346.626 246.73 346.722 248.148 346.871 249.416C346.188 249.353 345.521 249.321 344.868 249.321C344.216 249.321 343.548 249.353 342.866 249.416C343.014 248.148 343.111 246.73 343.155 245.161C343.2 243.592 343.222 242.094 343.222 240.668V235.723Z" fill="#000000" />
    <path d="M355.31 228.379C355.31 227.356 355.302 226.243 355.286 225.039C355.27 223.835 355.247 222.646 355.215 221.473C355.184 220.299 355.144 219.178 355.097 218.109C355.05 217.041 354.995 216.131 354.932 215.378C355.814 215.529 356.523 215.604 357.059 215.604C357.595 215.604 358.304 215.529 359.186 215.378C359.123 216.131 359.068 217.041 359.021 218.109C358.974 219.178 358.934 220.299 358.903 221.473C358.871 222.646 358.847 223.835 358.832 225.039C358.816 226.243 358.808 227.356 358.808 228.379V236.596C358.808 237.167 358.997 237.453 359.375 237.453C359.628 237.453 359.903 237.348 360.203 237.137C360.502 236.927 360.841 236.686 361.219 236.415C361.503 236.204 361.983 235.798 362.661 235.196C363.339 234.594 364.095 233.894 364.93 233.097C365.765 232.299 366.624 231.449 367.507 230.546C368.389 229.643 369.193 228.786 369.918 227.973C370.548 228.124 371.147 228.199 371.714 228.199C372.061 228.199 372.408 228.176 372.754 228.131C373.101 228.086 373.542 228.033 374.078 227.973C372.092 229.508 370.194 231.02 368.381 232.51C366.569 234 364.844 235.512 363.205 237.047C365.001 239.124 366.853 241.2 368.759 243.277C370.666 245.353 372.612 247.4 374.598 249.416C374.062 249.356 373.582 249.326 373.156 249.326C372.731 249.326 372.313 249.326 371.903 249.326C371.557 249.326 371.178 249.326 370.769 249.326C370.359 249.326 369.933 249.356 369.492 249.416C368.799 248.664 368.011 247.784 367.129 246.775C366.246 245.767 365.371 244.766 364.505 243.773C363.638 242.78 362.811 241.847 362.023 240.974C361.235 240.102 360.557 239.379 359.99 238.808C359.895 238.687 359.785 238.582 359.659 238.492C359.533 238.401 359.407 238.356 359.281 238.356C358.966 238.356 358.808 238.537 358.808 238.898V241.606C358.808 242.961 358.832 244.277 358.879 245.557C358.926 246.836 359.029 248.122 359.186 249.416C358.461 249.356 357.752 249.326 357.059 249.326C356.366 249.326 355.656 249.356 354.932 249.416C354.995 248.724 355.05 247.851 355.097 246.798C355.144 245.745 355.184 244.631 355.215 243.457C355.247 242.284 355.27 241.095 355.286 239.891C355.302 238.687 355.31 237.574 355.31 236.55V228.379Z" fill="#000000" />
    <path d="M390.887 237.525C390.35 237.715 389.726 237.873 389.015 237.999C388.304 238.125 387.585 238.26 386.859 238.402C386.132 238.544 385.413 238.726 384.703 238.947C383.992 239.168 383.36 239.468 382.807 239.847C382.254 240.226 381.812 240.699 381.48 241.268C381.149 241.836 380.983 242.563 380.983 243.447C380.983 244.931 381.409 246.052 382.262 246.81C383.115 247.568 384.063 247.947 385.105 247.947C386.306 247.947 387.404 247.615 388.399 246.952C389.394 246.289 390.16 245.515 390.697 244.631L390.887 237.525ZM379.182 229.093C380.604 228.02 381.915 227.293 383.115 226.914C384.316 226.535 385.548 226.346 386.811 226.346C387.949 226.346 388.991 226.512 389.939 226.843C390.887 227.175 391.692 227.649 392.356 228.265C393.019 228.88 393.54 229.622 393.919 230.491C394.299 231.359 394.488 232.315 394.488 233.357C394.488 235.157 394.456 236.949 394.393 238.733C394.33 240.518 394.299 242.405 394.299 244.394C394.299 244.773 394.306 245.176 394.322 245.602C394.338 246.028 394.409 246.407 394.535 246.739C394.662 247.071 394.843 247.347 395.08 247.568C395.317 247.789 395.673 247.9 396.147 247.9C396.305 247.9 396.47 247.892 396.644 247.876C396.818 247.86 396.984 247.805 397.142 247.71V248.752C396.794 248.91 396.36 249.037 395.839 249.131C395.317 249.226 394.741 249.273 394.109 249.273C393.098 249.273 392.324 249.013 391.787 248.492C391.25 247.971 390.934 247.3 390.839 246.478C389.702 247.615 388.581 248.452 387.475 248.989C386.369 249.526 385.011 249.794 383.4 249.794C382.61 249.794 381.836 249.684 381.078 249.463C380.319 249.242 379.648 248.879 379.064 248.373C378.479 247.868 378.005 247.26 377.642 246.55C377.279 245.839 377.097 245.026 377.097 244.11C377.097 242.215 377.689 240.747 378.874 239.704C380.059 238.662 381.694 237.968 383.779 237.62C385.485 237.336 386.819 237.091 387.783 236.886C388.746 236.681 389.457 236.468 389.915 236.246C390.373 236.025 390.65 235.765 390.745 235.465C390.839 235.165 390.887 234.778 390.887 234.304C390.887 233.515 390.792 232.757 390.602 232.03C390.413 231.304 390.113 230.673 389.702 230.136C389.291 229.599 388.754 229.165 388.091 228.833C387.427 228.501 386.622 228.336 385.674 228.336C384.41 228.336 383.234 228.62 382.144 229.188C381.054 229.757 380.24 230.546 379.703 231.557H379.182V229.093Z" fill="#000000" />
    <path d="M416.866 236.05C416.866 233.671 416.405 231.872 415.482 230.651C414.559 229.43 413.285 228.82 411.662 228.82C409.434 228.82 407.803 229.501 406.769 230.865C405.734 232.229 405.217 234.147 405.217 236.621V240.664C405.217 242.091 405.241 243.589 405.289 245.159C405.336 246.729 405.44 248.148 405.599 249.416C404.867 249.353 404.151 249.321 403.45 249.321C402.75 249.321 402.034 249.353 401.302 249.416C401.461 248.148 401.565 246.729 401.612 245.159C401.66 243.589 401.684 242.091 401.684 240.664V235.717C401.684 234.29 401.66 232.791 401.612 231.222C401.565 229.652 401.461 228.185 401.302 226.822C402.193 226.98 402.909 227.06 403.45 227.06C403.705 227.06 403.984 227.036 404.286 226.988C404.588 226.941 404.946 226.885 405.36 226.822C405.265 228.09 405.217 229.359 405.217 230.627H405.312C406.204 229.263 407.27 228.209 408.511 227.464C409.752 226.719 411.233 226.346 412.951 226.346C413.842 226.346 414.742 226.473 415.649 226.727C416.556 226.98 417.375 227.416 418.108 228.035C418.84 228.653 419.436 229.493 419.898 230.556C420.359 231.618 420.59 232.974 420.59 234.623C420.59 235.986 420.558 237.39 420.495 238.832C420.431 240.275 420.399 241.805 420.399 243.423V246.515C420.399 247.022 420.407 247.521 420.423 248.013C420.439 248.505 420.463 248.972 420.495 249.416C419.858 249.353 419.19 249.321 418.489 249.321C417.821 249.321 417.169 249.353 416.532 249.416C416.596 247.767 416.667 246.071 416.747 244.327C416.826 242.582 416.866 240.791 416.866 238.951V236.05Z" fill="#000000" />
    <path d="M435.571 227.862C434.415 227.862 433.439 228.13 432.643 228.667C431.847 229.204 431.191 229.875 430.676 230.68C430.161 231.486 429.77 232.37 429.505 233.333C429.239 234.296 429.075 235.204 429.013 236.057C429.981 236.089 430.988 236.12 432.034 236.152C433.08 236.183 434.103 236.199 435.102 236.199C436.133 236.199 437.179 236.183 438.241 236.152C439.302 236.12 440.333 236.089 441.332 236.057C441.332 235.204 441.262 234.304 441.121 233.357C440.981 232.409 440.7 231.525 440.278 230.704C439.857 229.883 439.271 229.204 438.522 228.667C437.772 228.13 436.789 227.862 435.571 227.862ZM424.75 238.804C424.75 234.92 425.664 231.873 427.491 229.662C429.317 227.451 431.98 226.346 435.477 226.346C437.132 226.346 438.561 226.607 439.763 227.128C440.965 227.649 441.972 228.343 442.784 229.212C443.596 230.08 444.197 231.099 444.588 232.267C444.978 233.436 445.173 234.683 445.173 236.01C445.173 236.325 445.165 236.633 445.15 236.933C445.134 237.233 445.111 237.541 445.08 237.857C443.393 237.825 441.723 237.794 440.068 237.762C438.412 237.731 436.742 237.715 435.055 237.715C434.025 237.715 433.002 237.731 431.987 237.762C430.972 237.794 429.95 237.825 428.919 237.857C428.888 238.015 428.872 238.252 428.872 238.568V239.183C428.872 240.415 429.052 241.568 429.411 242.641C429.77 243.715 430.293 244.639 430.98 245.413C431.667 246.186 432.51 246.802 433.51 247.26C434.509 247.718 435.664 247.947 436.976 247.947C437.601 247.947 438.241 247.86 438.896 247.686C439.552 247.513 440.192 247.276 440.817 246.976C441.442 246.676 442.027 246.321 442.574 245.91C443.12 245.5 443.596 245.057 444.002 244.584L444.236 244.726L443.955 247.047C443.019 247.805 441.855 248.452 440.466 248.989C439.076 249.526 437.632 249.794 436.133 249.794C434.447 249.794 432.909 249.534 431.519 249.013C430.129 248.492 428.927 247.734 427.912 246.739C426.897 245.744 426.117 244.568 425.57 243.21C425.024 241.852 424.75 240.383 424.75 238.804Z" fill="#000000" />
    <path d="M470.445 228.211C470.445 226.031 470.406 223.892 470.327 221.794C470.249 219.697 470.163 217.558 470.069 215.378C471.479 215.444 472.882 215.502 474.277 215.552C475.672 215.601 477.074 215.626 478.485 215.626C479.896 215.626 481.322 215.601 482.764 215.552C484.206 215.502 485.773 215.444 487.466 215.378C487.372 215.874 487.325 216.369 487.325 216.865C487.325 217.36 487.372 217.856 487.466 218.351C486.619 218.252 485.601 218.161 484.41 218.078C483.218 217.996 482.004 217.93 480.766 217.88C479.527 217.831 478.336 217.789 477.192 217.756C476.048 217.723 475.1 217.707 474.347 217.707C474.316 218.863 474.292 219.969 474.277 221.026C474.261 222.083 474.253 223.14 474.253 224.197C474.253 225.353 474.261 226.419 474.277 227.393C474.292 228.367 474.3 229.383 474.3 230.44C476.369 230.44 478.415 230.407 480.436 230.341C482.458 230.275 484.457 230.143 486.431 229.945C486.306 230.44 486.243 230.936 486.243 231.431C486.243 231.927 486.306 232.422 486.431 232.917C485.648 232.818 484.762 232.744 483.775 232.695C482.787 232.645 481.761 232.604 480.695 232.571C479.629 232.538 478.548 232.521 477.451 232.521C476.354 232.521 475.303 232.521 474.3 232.521V236.733C474.3 238.913 474.34 241.06 474.418 243.173C474.496 245.287 474.582 247.368 474.676 249.416C473.956 249.35 473.188 249.317 472.373 249.317C471.558 249.317 470.79 249.35 470.069 249.416C470.163 247.368 470.249 245.287 470.327 243.173C470.406 241.06 470.445 238.913 470.445 236.733V228.211Z" fill="#000000" />
    <path d="M492.382 218.559C492.382 217.894 492.623 217.323 493.105 216.848C493.587 216.372 494.166 216.135 494.841 216.135C495.516 216.135 496.094 216.372 496.576 216.848C497.058 217.323 497.299 217.894 497.299 218.559C497.299 219.225 497.058 219.796 496.576 220.271C496.094 220.746 495.516 220.984 494.841 220.984C494.166 220.984 493.587 220.746 493.105 220.271C492.623 219.796 492.382 219.225 492.382 218.559ZM493.057 235.723C493.057 234.297 493.033 232.799 492.985 231.23C492.937 229.661 492.832 228.195 492.672 226.832C493.571 226.991 494.294 227.07 494.841 227.07C495.387 227.07 496.11 226.991 497.01 226.832C496.849 228.195 496.745 229.661 496.696 231.23C496.648 232.799 496.624 234.297 496.624 235.723V240.668C496.624 242.094 496.648 243.592 496.696 245.161C496.745 246.73 496.849 248.148 497.01 249.416C496.271 249.353 495.548 249.321 494.841 249.321C494.134 249.321 493.411 249.353 492.672 249.416C492.832 248.148 492.937 246.73 492.985 245.161C493.033 243.592 493.057 242.094 493.057 240.668V235.723Z" fill="#000000" />
    <path d="M504.476 228.146C504.476 227.111 504.469 225.985 504.453 224.768C504.438 223.551 504.415 222.349 504.384 221.162C504.353 219.975 504.315 218.842 504.268 217.762C504.222 216.681 504.168 215.761 504.107 215C504.969 215.152 505.663 215.228 506.187 215.228C506.711 215.228 507.404 215.152 508.267 215C508.205 215.761 508.151 216.681 508.105 217.762C508.059 218.842 508.02 219.975 507.989 221.162C507.959 222.349 507.936 223.551 507.92 224.768C507.905 225.985 507.897 227.111 507.897 228.146V236.407C507.897 237.442 507.905 238.568 507.92 239.785C507.936 241.002 507.959 242.204 507.989 243.391C508.02 244.578 508.059 245.704 508.105 246.769C508.151 247.834 508.205 248.716 508.267 249.416C507.558 249.355 506.865 249.325 506.187 249.325C505.509 249.325 504.815 249.355 504.107 249.416C504.168 248.716 504.222 247.834 504.268 246.769C504.315 245.704 504.353 244.578 504.384 243.391C504.415 242.204 504.438 241.002 504.453 239.785C504.469 238.568 504.476 237.442 504.476 236.407V228.146Z" fill="#000000" />
    <path d="M515.454 235.717C515.454 234.29 515.43 232.791 515.383 231.222C515.335 229.652 515.232 228.185 515.074 226.822C515.959 226.98 516.671 227.06 517.208 227.06C517.461 227.06 517.737 227.036 518.038 226.988C518.338 226.941 518.693 226.885 519.104 226.822C519.01 228.09 518.962 229.359 518.962 230.627H519.057C520.732 227.773 523.087 226.346 526.121 226.346C526.911 226.346 527.686 226.465 528.444 226.703C529.203 226.941 529.89 227.266 530.507 227.678C531.123 228.09 531.653 228.59 532.095 229.176C532.538 229.763 532.838 230.389 532.996 231.055H533.091C533.849 229.533 534.884 228.368 536.196 227.559C537.508 226.75 539.017 226.346 540.724 226.346C541.767 226.346 542.731 226.489 543.616 226.774C544.501 227.06 545.268 227.503 545.915 228.106C546.563 228.709 547.069 229.485 547.433 230.437C547.796 231.388 547.978 232.53 547.978 233.862C547.978 234.401 547.962 234.987 547.93 235.622C547.899 236.256 547.867 236.993 547.836 237.834C547.804 238.674 547.772 239.625 547.741 240.688C547.709 241.75 547.693 242.979 547.693 244.374C547.693 245.23 547.701 246.055 547.717 246.848C547.733 247.64 547.772 248.497 547.836 249.416C547.488 249.353 547.14 249.321 546.793 249.321C546.445 249.321 546.113 249.321 545.797 249.321C545.449 249.321 545.102 249.321 544.754 249.321C544.406 249.321 544.059 249.353 543.711 249.416C543.806 248.623 543.908 247.022 544.019 244.612C544.13 242.202 544.185 238.84 544.185 234.528C544.185 233.735 544.098 232.99 543.924 232.292C543.75 231.594 543.474 230.992 543.094 230.484C542.715 229.977 542.209 229.573 541.577 229.271C540.945 228.97 540.155 228.82 539.207 228.82C538.069 228.82 537.105 229.042 536.315 229.485C535.524 229.929 534.908 230.453 534.466 231.055C534.213 231.404 534.015 231.753 533.873 232.102C533.731 232.451 533.62 232.982 533.541 233.695C533.462 234.409 533.407 235.408 533.375 236.692C533.344 237.976 533.328 239.744 533.328 241.996C533.328 243.359 533.351 244.604 533.399 245.73C533.446 246.856 533.502 248.084 533.565 249.416C532.838 249.353 532.142 249.321 531.479 249.321C530.815 249.321 530.12 249.353 529.393 249.416C529.551 247.672 529.661 245.896 529.724 244.089C529.788 242.281 529.819 240.505 529.819 238.761C529.819 237.271 529.811 236.105 529.796 235.265C529.78 234.425 529.74 233.759 529.677 233.267C529.614 232.776 529.527 232.371 529.416 232.054C529.306 231.737 529.156 231.388 528.966 231.008C528.618 230.405 528.073 229.89 527.33 229.462C526.587 229.034 525.821 228.82 525.031 228.82C522.945 228.82 521.412 229.501 520.432 230.865C519.452 232.229 518.962 234.147 518.962 236.621V240.664C518.962 242.091 518.986 243.589 519.033 245.159C519.081 246.729 519.183 248.148 519.341 249.416C518.614 249.353 517.903 249.321 517.208 249.321C516.513 249.321 515.801 249.353 515.074 249.416C515.232 248.148 515.335 246.729 515.383 245.159C515.43 243.589 515.454 242.091 515.454 240.664V235.717Z" fill="#000000" />
    <path d="M573.064 228.211C573.064 226.031 573.025 223.892 572.947 221.794C572.87 219.697 572.784 217.558 572.691 215.378C573.873 215.444 575.048 215.502 576.215 215.552C577.382 215.601 578.556 215.626 579.739 215.626C580.921 215.626 582.096 215.585 583.263 215.502C584.43 215.419 585.605 215.378 586.787 215.378C589.525 215.378 591.867 215.758 593.812 216.518C595.757 217.277 597.352 218.359 598.596 219.763C599.841 221.167 600.751 222.884 601.327 224.916C601.903 226.947 602.19 229.235 602.19 231.778C602.19 235.081 601.654 237.864 600.58 240.126C599.506 242.389 598.137 244.214 596.472 245.601C594.808 246.989 592.972 247.971 590.965 248.549C588.958 249.127 587.036 249.416 585.2 249.416C584.142 249.416 583.1 249.4 582.073 249.367C581.046 249.334 580.003 249.317 578.945 249.317C577.887 249.317 576.845 249.317 575.818 249.317C574.791 249.317 573.749 249.35 572.691 249.416C572.784 247.368 572.87 245.287 572.947 243.173C573.025 241.06 573.064 238.913 573.064 236.733V228.211ZM576.892 236.733C576.892 240.3 576.985 243.801 577.172 247.236C577.825 247.401 578.712 247.525 579.832 247.608C580.953 247.69 582.104 247.732 583.286 247.732C584.998 247.732 586.709 247.517 588.421 247.088C590.132 246.658 591.665 245.849 593.018 244.66C594.372 243.471 595.477 241.844 596.332 239.78C597.188 237.715 597.616 235.048 597.616 231.778C597.616 228.904 597.282 226.543 596.613 224.693C595.943 222.843 595.026 221.382 593.859 220.308C592.692 219.235 591.299 218.491 589.681 218.078C588.063 217.666 586.289 217.459 584.36 217.459C582.96 217.459 581.653 217.509 580.439 217.608C579.225 217.707 578.136 217.822 577.172 217.955C577.078 219.54 577.008 221.2 576.962 222.934C576.915 224.668 576.892 226.427 576.892 228.211V236.733Z" fill="#000000" />
    <path d="M617.779 227.862C616.624 227.862 615.648 228.13 614.852 228.667C614.055 229.204 613.399 229.875 612.884 230.68C612.369 231.486 611.979 232.37 611.713 233.333C611.448 234.296 611.284 235.204 611.221 236.057C612.189 236.089 613.196 236.12 614.243 236.152C615.289 236.183 616.311 236.199 617.311 236.199C618.341 236.199 619.387 236.183 620.449 236.152C621.511 236.12 622.541 236.089 623.541 236.057C623.541 235.204 623.47 234.304 623.33 233.357C623.189 232.409 622.908 231.525 622.487 230.704C622.065 229.883 621.48 229.204 620.73 228.667C619.981 228.13 618.997 227.862 617.779 227.862ZM606.959 238.804C606.959 234.92 607.872 231.873 609.699 229.662C611.526 227.451 614.188 226.346 617.685 226.346C619.34 226.346 620.769 226.607 621.971 227.128C623.174 227.649 624.181 228.343 624.993 229.212C625.805 230.08 626.406 231.099 626.796 232.267C627.186 233.436 627.382 234.683 627.382 236.01C627.382 236.325 627.374 236.633 627.358 236.933C627.343 237.233 627.319 237.541 627.288 237.857C625.602 237.825 623.931 237.794 622.276 237.762C620.621 237.731 618.95 237.715 617.264 237.715C616.233 237.715 615.211 237.731 614.196 237.762C613.181 237.794 612.158 237.825 611.128 237.857C611.096 238.015 611.081 238.252 611.081 238.568V239.183C611.081 240.415 611.26 241.568 611.619 242.641C611.979 243.715 612.502 244.639 613.189 245.413C613.876 246.186 614.719 246.802 615.718 247.26C616.717 247.718 617.873 247.947 619.184 247.947C619.809 247.947 620.449 247.86 621.105 247.686C621.761 247.513 622.401 247.276 623.025 246.976C623.65 246.676 624.235 246.321 624.782 245.91C625.328 245.5 625.805 245.057 626.211 244.584L626.445 244.726L626.164 247.047C625.227 247.805 624.064 248.452 622.674 248.989C621.284 249.526 619.84 249.794 618.341 249.794C616.655 249.794 615.117 249.534 613.727 249.013C612.338 248.492 611.135 247.734 610.121 246.739C609.106 245.744 608.325 244.568 607.778 243.21C607.232 241.852 606.959 240.383 606.959 238.804Z" fill="#000000" />
    <path d="M633.103 244.915C633.262 245.231 633.509 245.578 633.843 245.957C634.177 246.336 634.575 246.692 635.036 247.023C635.498 247.355 636.023 247.631 636.612 247.852C637.2 248.073 637.829 248.184 638.497 248.184C639.102 248.184 639.683 248.089 640.239 247.9C640.796 247.71 641.29 247.442 641.719 247.094C642.149 246.747 642.491 246.305 642.746 245.768C643 245.231 643.127 244.615 643.127 243.92C643.127 242.941 642.849 242.191 642.292 241.67C641.735 241.149 641.043 240.723 640.216 240.391C639.388 240.06 638.481 239.768 637.495 239.515C636.508 239.262 635.601 238.907 634.774 238.449C633.947 237.991 633.254 237.383 632.697 236.625C632.141 235.867 631.862 234.825 631.862 233.499C631.862 232.457 632.037 231.501 632.387 230.633C632.737 229.765 633.246 229.015 633.915 228.383C634.583 227.751 635.41 227.254 636.397 226.891C637.383 226.528 638.513 226.346 639.786 226.346C640.963 226.346 641.958 226.504 642.769 226.82C643.581 227.136 644.353 227.42 645.084 227.672C644.83 228.146 644.591 228.73 644.368 229.425C644.146 230.12 644.003 230.657 643.939 231.036H643.366C643.111 230.278 642.618 229.599 641.886 228.999C641.154 228.399 640.247 228.099 639.165 228.099C638.688 228.099 638.211 228.178 637.733 228.336C637.256 228.493 636.826 228.73 636.445 229.046C636.063 229.362 635.745 229.772 635.49 230.278C635.235 230.783 635.108 231.383 635.108 232.078C635.108 233.088 635.387 233.87 635.943 234.423C636.5 234.975 637.192 235.41 638.02 235.725C638.847 236.041 639.754 236.318 640.741 236.554C641.727 236.791 642.634 237.123 643.462 237.549C644.289 237.975 644.981 238.568 645.538 239.326C646.095 240.083 646.373 241.126 646.373 242.452C646.373 243.368 646.174 244.268 645.777 245.152C645.379 246.036 644.806 246.834 644.058 247.544C643.31 248.255 642.411 248.808 641.361 249.202C640.311 249.597 639.118 249.794 637.781 249.794C636.317 249.794 635.092 249.652 634.106 249.368C633.119 249.084 632.292 248.752 631.623 248.373C631.814 247.963 632.013 247.402 632.22 246.692C632.427 245.981 632.53 245.389 632.53 244.915H633.103Z" fill="#000000" />
    <path d="M652.276 218.559C652.276 217.894 652.517 217.323 652.999 216.848C653.481 216.372 654.06 216.135 654.735 216.135C655.409 216.135 655.988 216.372 656.47 216.848C656.952 217.323 657.193 217.894 657.193 218.559C657.193 219.225 656.952 219.796 656.47 220.271C655.988 220.746 655.409 220.984 654.735 220.984C654.06 220.984 653.481 220.746 652.999 220.271C652.517 219.796 652.276 219.225 652.276 218.559ZM652.951 235.723C652.951 234.297 652.927 232.799 652.879 231.23C652.831 229.661 652.726 228.195 652.565 226.832C653.465 226.991 654.188 227.07 654.735 227.07C655.281 227.07 656.004 226.991 656.904 226.832C656.743 228.195 656.639 229.661 656.59 231.23C656.542 232.799 656.518 234.297 656.518 235.723V240.668C656.518 242.094 656.542 243.592 656.59 245.161C656.639 246.73 656.743 248.148 656.904 249.416C656.165 249.353 655.442 249.321 654.735 249.321C654.028 249.321 653.305 249.353 652.565 249.416C652.726 248.148 652.831 246.73 652.879 245.161C652.927 243.592 652.951 242.094 652.951 240.668V235.723Z" fill="#000000" />
    <path d="M679.459 254.323C679.459 252.429 678.915 251.104 677.827 250.346C676.739 249.589 674.935 249.21 672.417 249.21C670.085 249.21 668.281 249.597 667.007 250.37C665.732 251.143 665.094 252.54 665.094 254.559C665.094 255.632 665.273 256.548 665.631 257.305C665.988 258.062 666.47 258.678 667.077 259.151C667.683 259.625 668.406 259.972 669.245 260.193C670.085 260.414 670.986 260.524 671.95 260.524C672.883 260.524 673.8 260.398 674.702 260.145C675.604 259.893 676.404 259.514 677.104 259.009C677.804 258.504 678.371 257.865 678.806 257.092C679.242 256.319 679.459 255.396 679.459 254.323ZM676.941 233.825C676.941 231.837 676.474 230.322 675.542 229.281C674.609 228.239 673.381 227.719 671.857 227.719C670.178 227.719 668.872 228.295 667.939 229.447C667.007 230.598 666.54 232.137 666.54 234.062C666.54 236.05 666.968 237.62 667.823 238.772C668.678 239.924 670.007 240.5 671.81 240.5C672.712 240.5 673.482 240.319 674.119 239.956C674.756 239.593 675.285 239.104 675.705 238.488C676.125 237.873 676.435 237.163 676.638 236.358C676.84 235.553 676.941 234.709 676.941 233.825ZM662.902 234.062C662.902 232.737 663.136 231.593 663.602 230.63C664.068 229.667 664.713 228.871 665.537 228.239C666.361 227.608 667.31 227.135 668.382 226.819C669.455 226.504 670.598 226.346 671.81 226.346C672.401 226.346 672.969 226.362 673.513 226.393C674.057 226.425 674.749 226.472 675.588 226.535C676.303 226.598 676.941 226.646 677.5 226.677C678.06 226.709 678.511 226.725 678.853 226.725C680.594 226.725 681.853 226.646 682.631 226.488C682.6 226.646 682.576 226.811 682.561 226.985C682.545 227.159 682.537 227.324 682.537 227.482C682.537 227.64 682.545 227.806 682.561 227.979C682.576 228.153 682.6 228.318 682.631 228.476C681.729 228.413 680.851 228.342 679.996 228.263C679.141 228.184 678.293 228.129 677.454 228.097L677.36 228.192C678.324 228.729 679.102 229.557 679.692 230.677C680.283 231.798 680.579 232.957 680.579 234.157C680.579 236.524 679.793 238.378 678.223 239.719C676.653 241.06 674.547 241.731 671.904 241.731C671.468 241.731 671.041 241.715 670.621 241.683C670.201 241.652 669.774 241.636 669.339 241.636C668.779 241.636 668.258 241.841 667.776 242.252C667.294 242.662 667.053 243.182 667.053 243.814C667.053 244.634 667.248 245.234 667.636 245.613C668.025 245.991 668.748 246.196 669.805 246.228C670.676 246.259 671.531 246.283 672.37 246.299C673.21 246.315 674.065 246.338 674.935 246.37C676.365 246.401 677.586 246.575 678.596 246.891C679.607 247.206 680.431 247.632 681.068 248.169C681.706 248.705 682.172 249.321 682.467 250.015C682.763 250.709 682.911 251.467 682.911 252.287C682.911 253.392 682.701 254.512 682.281 255.648C681.861 256.784 681.208 257.81 680.322 258.725C679.436 259.64 678.293 260.398 676.894 260.997C675.495 261.597 673.816 261.897 671.857 261.897C668.841 261.897 666.462 261.289 664.721 260.074C662.98 258.859 662.109 257.195 662.109 255.08C662.109 254.26 662.257 253.502 662.553 252.808C662.848 252.114 663.229 251.498 663.695 250.962C664.162 250.425 664.69 249.999 665.281 249.684C665.872 249.368 666.478 249.131 667.1 248.974V248.879C666.136 248.595 665.405 248.121 664.908 247.459C664.41 246.796 664.162 246.007 664.162 245.092C664.162 244.555 664.263 244.066 664.465 243.624C664.667 243.182 664.923 242.788 665.234 242.441C665.545 242.094 665.903 241.81 666.307 241.589C666.711 241.368 667.1 241.226 667.473 241.163V241.068C666.043 240.437 664.923 239.545 664.115 238.393C663.307 237.242 662.902 235.798 662.902 234.062Z" fill="#000000" />
    <path d="M701.952 236.05C701.952 233.671 701.499 231.872 700.594 230.651C699.689 229.43 698.441 228.82 696.85 228.82C694.665 228.82 693.066 229.501 692.052 230.865C691.038 232.229 690.531 234.147 690.531 236.621V240.664C690.531 242.091 690.554 243.589 690.601 245.159C690.648 246.729 690.749 248.148 690.905 249.416C690.187 249.353 689.485 249.321 688.799 249.321C688.112 249.321 687.41 249.353 686.692 249.416C686.848 248.148 686.95 246.729 686.997 245.159C687.044 243.589 687.067 242.091 687.067 240.664V235.717C687.067 234.29 687.044 232.791 686.997 231.222C686.95 229.652 686.848 228.185 686.692 226.822C687.566 226.98 688.268 227.06 688.799 227.06C689.048 227.06 689.321 227.036 689.618 226.988C689.914 226.941 690.265 226.885 690.671 226.822C690.577 228.09 690.531 229.359 690.531 230.627H690.624C691.498 229.263 692.543 228.209 693.76 227.464C694.977 226.719 696.428 226.346 698.113 226.346C698.987 226.346 699.869 226.473 700.758 226.727C701.647 226.98 702.451 227.416 703.169 228.035C703.886 228.653 704.471 229.493 704.924 230.556C705.376 231.618 705.603 232.974 705.603 234.623C705.603 235.986 705.571 237.39 705.509 238.832C705.446 240.275 705.415 241.805 705.415 243.423V246.515C705.415 247.022 705.423 247.521 705.439 248.013C705.454 248.505 705.478 248.972 705.509 249.416C704.885 249.353 704.229 249.321 703.543 249.321C702.888 249.321 702.248 249.353 701.624 249.416C701.686 247.767 701.757 246.071 701.835 244.327C701.913 242.582 701.952 240.791 701.952 238.951V236.05Z" fill="#000000" />
    <path d="M724.825 232.659C724.825 229.923 725.218 227.486 726.005 225.346C726.792 223.206 727.894 221.396 729.31 219.916C730.726 218.435 732.422 217.309 734.396 216.537C736.37 215.764 738.531 215.378 740.877 215.378C743.252 215.378 745.426 215.764 747.401 216.537C749.375 217.309 751.07 218.435 752.487 219.916C753.903 221.396 755.005 223.206 755.792 225.346C756.578 227.486 756.972 229.923 756.972 232.659C756.972 235.394 756.578 237.832 755.792 239.972C755.005 242.112 753.903 243.922 752.487 245.402C751.07 246.882 749.375 247.984 747.401 248.708C745.426 249.432 743.252 249.794 740.877 249.794C738.531 249.794 736.37 249.432 734.396 248.708C732.422 247.984 730.726 246.882 729.31 245.402C727.894 243.922 726.792 242.112 726.005 239.972C725.218 237.832 724.825 235.394 724.825 232.659ZM752.766 232.659C752.766 229.988 752.465 227.679 751.864 225.732C751.264 223.785 750.427 222.176 749.354 220.905C748.281 219.634 747.022 218.693 745.577 218.081C744.132 217.47 742.565 217.164 740.877 217.164C739.217 217.164 737.665 217.47 736.22 218.081C734.775 218.693 733.516 219.634 732.443 220.905C731.37 222.176 730.533 223.785 729.932 225.732C729.331 227.679 729.031 229.988 729.031 232.659C729.031 235.33 729.331 237.639 729.932 239.585C730.533 241.532 731.37 243.141 732.443 244.412C733.516 245.683 734.775 246.625 736.22 247.236C737.665 247.848 739.217 248.153 740.877 248.153C742.565 248.153 744.132 247.848 745.577 247.236C747.022 246.625 748.281 245.683 749.354 244.412C750.427 243.141 751.264 241.532 751.864 239.585C752.465 237.639 752.766 235.33 752.766 232.659Z" fill="#000000" />
    <path d="M772.237 219.245C771.483 218.795 770.62 218.571 769.646 218.571C768.955 218.571 768.366 218.698 767.88 218.953C767.393 219.208 766.993 219.537 766.678 219.942C766.364 220.347 766.137 220.819 765.995 221.358C765.854 221.898 765.783 222.468 765.783 223.067C765.783 223.607 765.838 224.386 765.948 225.405C766.058 226.424 766.192 227.399 766.349 228.328C767.165 228.328 767.974 228.32 768.775 228.305C769.576 228.29 770.384 228.283 771.201 228.283C771.169 228.433 771.146 228.583 771.13 228.733C771.114 228.883 771.107 229.032 771.107 229.182C771.107 229.332 771.114 229.482 771.13 229.632C771.146 229.782 771.169 229.932 771.201 230.082C770.384 230.052 769.576 230.022 768.775 229.992C767.974 229.962 767.165 229.947 766.349 229.947C766.349 233.214 766.357 236.459 766.372 239.681C766.388 242.904 766.443 246.149 766.537 249.416C766.192 249.356 765.846 249.326 765.501 249.326C765.155 249.326 764.826 249.326 764.512 249.326C763.852 249.326 763.161 249.356 762.439 249.416C762.659 246.149 762.784 242.919 762.816 239.726C762.847 236.534 762.863 233.274 762.863 229.947C762.298 229.947 761.732 229.962 761.167 229.992C760.602 230.022 760.036 230.052 759.471 230.082C759.503 229.932 759.526 229.782 759.542 229.632C759.557 229.482 759.565 229.332 759.565 229.182C759.565 229.032 759.557 228.883 759.542 228.733C759.526 228.583 759.503 228.433 759.471 228.283C760.036 228.283 760.61 228.29 761.191 228.305C761.772 228.32 762.329 228.328 762.863 228.328C762.863 227.459 762.957 226.514 763.145 225.495C763.334 224.476 763.609 223.472 763.97 222.483C764.331 221.493 764.763 220.557 765.265 219.672C765.768 218.788 766.333 218.046 766.961 217.447C767.526 216.907 768.241 216.427 769.104 216.008C769.968 215.588 770.855 215.378 771.766 215.378C772.111 215.378 772.426 215.423 772.708 215.513C772.677 216.113 772.637 216.712 772.59 217.312C772.543 217.911 772.52 218.511 772.52 219.11L772.237 219.245Z" fill="#000000" />
    <path d="M785.704 219.245C784.95 218.795 784.087 218.571 783.113 218.571C782.422 218.571 781.833 218.698 781.347 218.953C780.86 219.208 780.459 219.537 780.145 219.942C779.831 220.347 779.604 220.819 779.462 221.358C779.321 221.898 779.25 222.468 779.25 223.067C779.25 223.607 779.305 224.386 779.415 225.405C779.525 226.424 779.659 227.399 779.816 228.328C780.632 228.328 781.441 228.32 782.242 228.305C783.042 228.29 783.851 228.283 784.668 228.283C784.636 228.433 784.613 228.583 784.597 228.733C784.581 228.883 784.573 229.032 784.573 229.182C784.573 229.332 784.581 229.482 784.597 229.632C784.613 229.782 784.636 229.932 784.668 230.082C783.851 230.052 783.042 230.022 782.242 229.992C781.441 229.962 780.632 229.947 779.816 229.947C779.816 233.214 779.823 236.459 779.839 239.681C779.855 242.904 779.91 246.149 780.004 249.416C779.659 249.356 779.313 249.326 778.968 249.326C778.622 249.326 778.293 249.326 777.978 249.326C777.319 249.326 776.628 249.356 775.906 249.416C776.126 246.149 776.251 242.919 776.283 239.726C776.314 236.534 776.33 233.274 776.33 229.947C775.764 229.947 775.199 229.962 774.634 229.992C774.069 230.022 773.503 230.052 772.938 230.082C772.969 229.932 772.993 229.782 773.009 229.632C773.024 229.482 773.032 229.332 773.032 229.182C773.032 229.032 773.024 228.883 773.009 228.733C772.993 228.583 772.969 228.433 772.938 228.283C773.503 228.283 774.076 228.29 774.657 228.305C775.238 228.32 775.796 228.328 776.33 228.328C776.33 227.459 776.424 226.514 776.612 225.495C776.801 224.476 777.076 223.472 777.437 222.483C777.798 221.493 778.23 220.557 778.732 219.672C779.235 218.788 779.8 218.046 780.428 217.447C780.993 216.907 781.708 216.427 782.571 216.008C783.435 215.588 784.322 215.378 785.233 215.378C785.578 215.378 785.892 215.423 786.175 215.513C786.144 216.113 786.104 216.712 786.057 217.312C786.01 217.911 785.987 218.511 785.987 219.11L785.704 219.245Z" fill="#000000" />
    <path d="M789.052 218.559C789.052 217.894 789.293 217.323 789.775 216.848C790.257 216.372 790.836 216.135 791.511 216.135C792.186 216.135 792.764 216.372 793.246 216.848C793.728 217.323 793.969 217.894 793.969 218.559C793.969 219.225 793.728 219.796 793.246 220.271C792.764 220.746 792.186 220.984 791.511 220.984C790.836 220.984 790.257 220.746 789.775 220.271C789.293 219.796 789.052 219.225 789.052 218.559ZM789.727 235.723C789.727 234.297 789.703 232.799 789.655 231.23C789.607 229.661 789.502 228.195 789.342 226.832C790.241 226.991 790.964 227.07 791.511 227.07C792.057 227.07 792.78 226.991 793.68 226.832C793.519 228.195 793.415 229.661 793.366 231.23C793.318 232.799 793.294 234.297 793.294 235.723V240.668C793.294 242.094 793.318 243.592 793.366 245.161C793.415 246.73 793.519 248.148 793.68 249.416C792.941 249.353 792.218 249.321 791.511 249.321C790.804 249.321 790.081 249.353 789.342 249.416C789.502 248.148 789.607 246.73 789.655 245.161C789.703 243.592 789.727 242.094 789.727 240.668V235.723Z" fill="#000000" />
    <path d="M799.264 238.141C799.264 236.089 799.611 234.32 800.304 232.836C800.997 231.351 801.903 230.128 803.022 229.165C804.141 228.201 805.425 227.491 806.875 227.033C808.325 226.575 809.806 226.346 811.319 226.346C813.052 226.346 814.605 226.559 815.976 226.985C817.347 227.412 818.332 227.893 818.93 228.43C818.71 228.904 818.513 229.401 818.339 229.922C818.166 230.444 818.016 230.988 817.89 231.557H817.512C817.291 231.146 816.992 230.728 816.614 230.301C816.236 229.875 815.787 229.48 815.267 229.117C814.747 228.754 814.171 228.454 813.541 228.217C812.911 227.98 812.217 227.862 811.461 227.862C810.043 227.862 808.821 228.122 807.797 228.643C806.773 229.165 805.938 229.883 805.291 230.799C804.645 231.715 804.173 232.796 803.873 234.044C803.574 235.291 803.424 236.641 803.424 238.094C803.424 241.347 804.117 243.802 805.504 245.46C806.891 247.118 808.924 247.947 811.603 247.947C812.233 247.947 812.879 247.86 813.541 247.686C814.203 247.513 814.849 247.276 815.479 246.976C816.11 246.676 816.701 246.321 817.252 245.91C817.804 245.5 818.284 245.057 818.694 244.584L818.93 244.726C818.773 245.484 818.678 246.257 818.647 247.047C817.701 247.805 816.527 248.452 815.125 248.989C813.722 249.526 812.265 249.794 810.752 249.794C809.397 249.794 808.033 249.597 806.662 249.202C805.291 248.808 804.054 248.144 802.951 247.213C801.848 246.281 800.958 245.073 800.28 243.589C799.603 242.105 799.264 240.289 799.264 238.141Z" fill="#000000" />
    <path d="M832.398 227.862C831.243 227.862 830.267 228.13 829.47 228.667C828.674 229.204 828.018 229.875 827.503 230.68C826.988 231.486 826.598 232.37 826.332 233.333C826.067 234.296 825.903 235.204 825.84 236.057C826.808 236.089 827.815 236.12 828.862 236.152C829.908 236.183 830.93 236.199 831.93 236.199C832.96 236.199 834.006 236.183 835.068 236.152C836.13 236.12 837.16 236.089 838.16 236.057C838.16 235.204 838.089 234.304 837.949 233.357C837.808 232.409 837.527 231.525 837.106 230.704C836.684 229.883 836.099 229.204 835.349 228.667C834.6 228.13 833.616 227.862 832.398 227.862ZM821.578 238.804C821.578 234.92 822.491 231.873 824.318 229.662C826.145 227.451 828.807 226.346 832.304 226.346C833.959 226.346 835.388 226.607 836.59 227.128C837.793 227.649 838.8 228.343 839.612 229.212C840.424 230.08 841.025 231.099 841.415 232.267C841.805 233.436 842.001 234.683 842.001 236.01C842.001 236.325 841.993 236.633 841.977 236.933C841.961 237.233 841.938 237.541 841.907 237.857C840.221 237.825 838.55 237.794 836.895 237.762C835.24 237.731 833.569 237.715 831.883 237.715C830.852 237.715 829.83 237.731 828.815 237.762C827.8 237.794 826.777 237.825 825.747 237.857C825.715 238.015 825.7 238.252 825.7 238.568V239.183C825.7 240.415 825.879 241.568 826.238 242.641C826.598 243.715 827.121 244.639 827.808 245.413C828.495 246.186 829.338 246.802 830.337 247.26C831.336 247.718 832.492 247.947 833.803 247.947C834.428 247.947 835.068 247.86 835.724 247.686C836.38 247.513 837.02 247.276 837.644 246.976C838.269 246.676 838.854 246.321 839.401 245.91C839.947 245.5 840.424 245.057 840.829 244.584L841.064 244.726L840.783 247.047C839.846 247.805 838.683 248.452 837.293 248.989C835.903 249.526 834.459 249.794 832.96 249.794C831.274 249.794 829.736 249.534 828.346 249.013C826.957 248.492 825.754 247.734 824.739 246.739C823.725 245.744 822.944 244.568 822.397 243.21C821.851 241.852 821.578 240.383 821.578 238.804Z" fill="#000000" />
    <path d="M155.052 157.165C171.24 157.165 179.657 157.202 180.422 157.299C188.85 158.231 196.527 163.051 201.17 170.303C202.217 171.938 203.757 175.086 204.309 176.721C204.815 178.21 205.415 180.644 205.732 182.533C206.096 184.64 206.132 189.047 205.802 191.191C205.356 194.108 204.556 196.954 203.474 199.46C201.206 204.691 197.432 209.293 192.8 212.441C190.061 214.293 186.582 215.856 183.725 216.485C181.268 217.042 181.48 217.03 172.498 217.103L163.904 217.164C175.049 227.493 186.126 237.897 197.221 248.282L187.122 248.343C181.716 243.352 154.447 217.178 154.182 217.478L153.948 216.761C154.555 214.836 155.042 212.855 155.4 210.829C170.036 210.828 171.628 210.82 170.256 210.813C175.177 210.806 176.553 210.699 178.611 210.332C181.202 209.86 184.548 208.708 186.816 207.485C189.338 206.128 192.482 203.585 194.209 201.502C198.001 196.947 199.876 191.218 199.458 185.561C199.216 182.314 198.499 179.891 196.907 176.973C192.725 169.305 185.547 164.677 176.52 163.83C175.556 163.745 147.341 163.682 135.25 163.711C133.83 162.792 132.357 161.953 130.835 161.201V157.165H155.052Z" fill="#000000" />
    <path d="M70.7425 221.202C73.3171 227.272 77.1301 232.656 81.853 237.017L81.8523 246.022L18.45 164.232V248.417H10V157.133L21.0645 157.117L70.7425 221.202ZM81.8523 157.133H81.8575L81.8568 168.694C77.5883 172.635 74.0627 177.412 71.5225 182.775V157.133L81.8523 157.13V157.133Z" fill="#000000" />
    <path d="M69.345 236.567L21.05 175.174" stroke="#000000" stroke-width="2.454" />
    <path d="M223.549 147.877L235.364 127.414H211.734L223.549 147.877Z" fill="#000000" />
    <path d="M223.549 151.993V248.62" stroke="#000000" stroke-width="8.45" />
    <path d="M111.562 245.538C134.448 245.538 153 226.429 153 202.857C153 179.286 134.448 160.177 111.562 160.177C88.6773 160.177 70.125 179.286 70.125 202.857C70.125 226.429 88.6773 245.538 111.562 245.538Z" stroke="#000000" stroke-width="3.97126" />
    <path d="M111.562 236.4C129.547 236.4 144.127 221.382 144.127 202.858C144.127 184.333 129.547 169.316 111.562 169.316C93.5776 169.316 78.9975 184.333 78.9975 202.858C78.9975 221.382 93.5776 236.4 111.562 236.4Z" stroke="#000000" stroke-width="1.51726" />
    <path d="M14.5316 262.908C16.6037 262.908 18.2834 261.178 18.2834 259.044C18.2834 256.91 16.6037 255.18 14.5316 255.18C12.4596 255.18 10.7798 256.91 10.7798 259.044C10.7798 261.178 12.4596 262.908 14.5316 262.908Z" fill="#000000" />
    <path d="M29.7729 262.908C31.8449 262.908 33.5247 261.178 33.5247 259.044C33.5247 256.91 31.8449 255.18 29.7729 255.18C27.7008 255.18 26.0211 256.91 26.0211 259.044C26.0211 261.178 27.7008 262.908 29.7729 262.908Z" fill="#000000" />
    <path d="M45.0141 262.908C47.0861 262.908 48.7659 261.178 48.7659 259.044C48.7659 256.91 47.0861 255.18 45.0141 255.18C42.942 255.18 41.2623 256.91 41.2623 259.044C41.2623 261.178 42.942 262.908 45.0141 262.908Z" fill="#000000" />
    <path d="M60.2553 262.908C62.3274 262.908 64.0071 261.178 64.0071 259.044C64.0071 256.91 62.3274 255.18 60.2553 255.18C58.1832 255.18 56.5035 256.91 56.5035 259.044C56.5035 261.178 58.1832 262.908 60.2553 262.908Z" fill="#000000" />
    <path d="M75.4966 262.908C77.5688 262.908 79.2484 261.178 79.2484 259.044C79.2484 256.91 77.5688 255.18 75.4966 255.18C73.4244 255.18 71.7448 256.91 71.7448 259.044C71.7448 261.178 73.4244 262.908 75.4966 262.908Z" fill="#000000" />
    <path d="M90.7378 262.908C92.81 262.908 94.4896 261.178 94.4896 259.044C94.4896 256.91 92.81 255.18 90.7378 255.18C88.6656 255.18 86.986 256.91 86.986 259.044C86.986 261.178 88.6656 262.908 90.7378 262.908Z" fill="#000000" />
    <path d="M105.979 262.908C108.051 262.908 109.731 261.178 109.731 259.044C109.731 256.91 108.051 255.18 105.979 255.18C103.907 255.18 102.227 256.91 102.227 259.044C102.227 261.178 103.907 262.908 105.979 262.908Z" fill="#000000" />
    <path d="M121.22 262.908C123.292 262.908 124.972 261.178 124.972 259.044C124.972 256.91 123.292 255.18 121.22 255.18C119.148 255.18 117.468 256.91 117.468 259.044C117.468 261.178 119.148 262.908 121.22 262.908Z" fill="#000000" />
    <path d="M136.461 262.908C138.534 262.908 140.213 261.178 140.213 259.044C140.213 256.91 138.534 255.18 136.461 255.18C134.389 255.18 132.71 256.91 132.71 259.044C132.71 261.178 134.389 262.908 136.461 262.908Z" fill="#000000" />
    <path d="M151.703 262.908C153.775 262.908 155.454 261.178 155.454 259.044C155.454 256.91 153.775 255.18 151.703 255.18C149.63 255.18 147.951 256.91 147.951 259.044C147.951 261.178 149.63 262.908 151.703 262.908Z" fill="#000000" />
    <path d="M166.944 262.908C169.016 262.908 170.696 261.178 170.696 259.044C170.696 256.91 169.016 255.18 166.944 255.18C164.872 255.18 163.192 256.91 163.192 259.044C163.192 261.178 164.872 262.908 166.944 262.908Z" fill="#000000" />
    <path d="M182.185 262.908C184.257 262.908 185.937 261.178 185.937 259.044C185.937 256.91 184.257 255.18 182.185 255.18C180.113 255.18 178.433 256.91 178.433 259.044C178.433 261.178 180.113 262.908 182.185 262.908Z" fill="#000000" />
    <path d="M197.426 262.908C199.498 262.908 201.178 261.178 201.178 259.044C201.178 256.91 199.498 255.18 197.426 255.18C195.354 255.18 193.674 256.91 193.674 259.044C193.674 261.178 195.354 262.908 197.426 262.908Z" fill="#000000" />
    <path d="M212.667 262.908C214.74 262.908 216.419 261.178 216.419 259.044C216.419 256.91 214.74 255.18 212.667 255.18C210.595 255.18 208.916 256.91 208.916 259.044C208.916 261.178 210.595 262.908 212.667 262.908Z" fill="#000000" />
    <path d="M227.909 262.908C229.981 262.908 231.66 261.178 231.66 259.044C231.66 256.91 229.981 255.18 227.909 255.18C225.836 255.18 224.157 256.91 224.157 259.044C224.157 261.178 225.836 262.908 227.909 262.908Z" fill="#000000" />
  </g>
  <defs>
    <clipPath id="clip0_3_156">
      <rect width="1165" height="262.908" fill="#000000" />
    </clipPath>
  </defs>
</svg>
