<svg width="832" height="141" viewBox="0 0 832 141" fill="none" xmlns="http://www.w3.org/2000/svg">
<g clip-path="url(#clip0_3_156)">
<path d="M278.513 30.0915C288.438 30.0915 297.044 36.9772 297.044 46.8138C297.044 57.4232 288.715 63.9575 279.346 65.9951C277.888 66.2762 277.263 67.1896 277.263 68.0327C277.263 69.0164 278.096 70 279.623 70C282.052 70 301 64.3791 301 47.0948C301 34.7288 290.52 27 278.582 27C261.717 27 252 40.6307 252 51.8023C252 60.0932 257.414 64.8709 261.023 64.8709C270.323 64.8709 279.484 38.4526 279.484 31.9183C279.484 31.0752 279.137 30.4428 278.513 30.0915ZM276.222 30.2321C275.806 30.5834 275.598 31.1455 275.528 31.9886C274.557 43.7925 265.95 60.6553 261.231 60.6553C258.455 60.6553 255.609 56.299 255.609 51.5213C255.609 42.7386 263.174 31.4968 276.222 30.2321Z" fill="black"/>
<path d="M334.812 27.8598C334.812 27.7316 334.876 27.4112 335.068 26.8344C335.837 24.5914 336.926 20.1054 336.926 19.016C336.926 17.8625 336.029 17.2857 335.132 17.2857C334.363 17.2857 333.53 17.7343 333.402 18.8237C332.889 22.8611 331.735 27.2189 330.966 30.6154C330.261 33.6915 329.492 38.8184 329.492 43.3043C329.492 46.3804 329.749 47.6621 331.479 47.6621C332.504 47.6621 333.466 46.9572 333.466 45.3551V45.0987C333.402 43.6888 333.338 42.4071 333.338 41.2536C333.338 28.821 339.233 25.809 342.694 25.809C348.718 25.809 350.128 35.9345 350.128 41.2536C350.128 52.084 344.681 62.0172 336.157 67.4645C335.196 68.0412 334.812 68.8103 334.812 69.4511C334.812 70.3483 335.581 71.1173 336.67 71.1173C337.183 71.1173 337.759 70.9251 338.336 70.5406C349.423 62.7222 353.781 51.9558 353.781 41.7663C353.781 35.1014 351.858 22.8611 343.014 22.8611C338.977 22.8611 336.35 25.6168 335.516 27.0267C335.26 27.4112 334.94 27.9239 334.812 27.9239V27.8598Z" fill="black"/>
<path d="M395.816 38.2358C392.53 48.2266 387.502 58.0162 382.875 63.2463C382.271 63.9839 382.003 64.5874 382.003 65.1908C382.003 66.1966 382.875 66.8671 383.948 66.8671C384.819 66.8671 385.691 66.4648 386.362 65.5261C391.726 57.9492 396.352 48.4948 399.705 37.7665C402.655 37.4312 404.466 37.2971 405.472 37.2971C409.495 37.2971 410.299 39.8451 410.299 44.1364C410.299 48.9642 409.293 62.0394 401.046 62.0394C399.839 62.0394 398.565 61.8382 397.224 61.4359C397.023 61.3688 396.822 61.3688 396.621 61.3688C395.548 61.3688 394.81 62.2405 394.81 63.1122C394.81 65.459 399.169 65.8613 400.912 65.8613C410.769 65.8613 413.92 54.5295 413.92 43.6671C413.92 36.1572 410.299 34.0786 406.075 34.0786C405.874 34.0786 405.807 34.0786 400.577 34.548C401.851 30.5248 403.125 23.8196 403.125 22.8138C403.125 21.6739 402.186 21.0034 401.247 21.0034C400.376 21.0034 399.437 21.5398 399.303 22.6797C398.632 27.0381 397.559 31.7988 396.688 34.9503L392.329 35.4196C389.848 35.6208 387.77 35.6208 385.557 35.6879C384.417 35.7549 383.814 36.6266 383.814 37.4983C383.814 38.3029 384.417 39.1746 385.624 39.1746C387.3 39.1746 389.848 38.9734 392.597 38.6382L395.816 38.2358ZM433.365 48.763C434.371 48.763 435.31 47.8914 435.31 46.6174C435.31 42.1249 424.246 32.067 421.43 32.067C420.357 32.067 419.687 32.8717 419.687 33.6763C419.687 34.1457 419.888 34.615 420.424 34.8832C425.989 37.9006 430.08 43.3318 431.622 47.422C431.957 48.3607 432.695 48.763 433.365 48.763Z" fill="black"/>
<path d="M464.612 39.8753C465.282 38.4672 465.953 37.1932 466.422 36.3216C466.958 35.3828 467.16 34.5111 467.16 33.9077C467.16 32.7678 466.489 32.0973 465.483 31.9632C466.087 27.1354 466.958 19.3573 466.958 18.3516C466.958 17.2787 465.953 16.6082 464.947 16.6082C464.008 16.6082 463.136 17.2117 463.136 18.4857C463.136 21.5701 462.667 26.7331 462.064 32.7007C450.866 36.3886 450.799 37.1262 450.799 38.2661C450.799 39.1377 451.402 39.9424 452.274 39.9424C452.609 39.9424 453.012 39.8753 453.414 39.6071C455.425 38.4002 459.65 36.7909 461.728 36.1204L461.393 39.8753C459.046 44.8372 452.073 57.7783 449.123 62.2037C448.854 62.6731 448.72 63.0754 448.72 63.4777C448.72 64.4835 449.525 65.0869 450.464 65.0869C452.073 65.0869 452.207 64.7517 456.029 56.7054C457.035 54.6268 458.912 51.5424 460.588 49.0615C460.253 52.9505 460.052 56.5713 460.052 59.8569C460.052 67.2997 460.454 68.6407 462.332 68.6407C463.405 68.6407 464.477 67.9031 464.477 66.6962C464.477 66.5621 464.41 66.3609 464.41 66.2268C463.874 63.4777 463.673 60.1251 463.673 56.3702C463.673 52.8164 463.874 48.9944 464.142 45.1724C469.439 37.7296 477.217 31.8961 483.118 31.8961C484.995 31.8961 491.5 32.0302 491.5 46.9158C491.5 50.2684 491.03 53.6881 489.756 56.7054C486.538 55.0291 483.051 53.9563 479.631 53.9563C474.401 53.9563 470.11 56.7054 470.11 60.5274C470.11 64.2153 474.066 67.1656 479.631 67.1656C483.654 67.1656 487.879 65.4222 491.03 61.6673C492.438 62.7401 493.712 64.0141 494.919 65.2881C495.321 65.6904 495.791 65.8916 496.26 65.8916C497.333 65.8916 498.339 64.9528 498.339 63.7459C498.339 63.0083 498.339 62.0696 493.042 58.5829C494.517 55.4985 495.187 51.2071 495.187 46.9829C495.187 37.3944 492.237 28.7447 483.52 28.7447C476.145 28.7447 468.635 35.5169 464.545 40.1435L464.612 39.8753ZM488.147 59.6557C485.934 62.6731 482.716 63.9471 479.564 63.9471C473.328 63.9471 473.328 60.6615 473.328 60.3933C473.328 56.8395 479.229 56.8395 479.631 56.8395C482.515 56.8395 485.465 57.9794 488.147 59.6557Z" fill="black"/>
<path d="M542.562 29.0617C540.594 27.7283 539.959 27.3474 537.864 26.2045C537.991 29.0617 538.054 30.268 538.054 31.7283V48.1727H533.483V37.7601C533.483 35.0934 533.483 31.7283 533.546 26.5855C535.007 25.6966 535.451 25.3156 535.451 24.9982C535.451 24.8712 535.324 24.6172 534.816 24.2363C533.546 22.9664 533.102 22.5855 531.642 21.4426L529.165 23.9188H521.8C519.896 22.522 519.324 22.141 517.293 20.7442C517.419 24.6807 517.483 26.9029 517.483 30.0775C517.483 51.1568 517.419 59.9822 517.293 65.6965C517.293 66.2679 517.483 66.5219 518.054 66.5219C518.816 66.5219 520.594 66.2679 520.912 66.1409C521.293 66.014 521.419 65.76 521.419 65.1886V60.9346H529.546V63.6648C529.546 64.4267 529.737 64.6171 530.372 64.6171C530.372 64.6171 530.372 64.6171 530.435 64.6171C530.626 64.5536 531.007 64.5536 531.642 64.5536C533.229 64.4901 533.673 64.2362 533.673 63.4108C533.483 58.5854 533.483 58.014 533.483 49.633H549.038C547.832 54.5854 546.245 57.8235 543.07 61.6965C539.197 66.4584 535.578 69.1251 527.642 73.1885L528.213 74.2044C531.451 72.9981 533.039 72.2996 534.626 71.5377C539.07 69.4425 542.372 67.0933 545.419 63.8552C549.229 59.7917 551.578 55.4108 552.911 49.8235C554.562 54.8394 555.388 56.6171 557.673 60.4902C561.419 66.6489 564.213 69.252 570.435 72.4901C571.324 70.2044 572.15 69.379 574.753 68.1727V67.3473C567.388 65.252 563.832 63.1568 559.578 58.5219C557.038 55.6648 555.896 53.9505 554.054 49.633H574.753C575.324 49.633 575.705 49.4426 575.705 49.1251C575.705 48.9981 575.642 48.8076 575.388 48.4902C573.546 46.7124 573.038 46.141 571.134 44.2997C569.737 46.014 569.292 46.5854 568.023 48.1727H567.007V31.7283C568.53 30.8394 569.165 30.268 569.165 29.9506C569.165 29.7601 568.975 29.5061 568.467 29.0617C566.943 27.8553 566.499 27.4744 564.911 26.3315C563.769 27.4744 563.388 27.8553 562.245 29.0617H554.308C554.308 22.649 554.308 22.649 554.308 20.1728C556.404 19.5379 556.975 19.2839 556.975 18.8395C556.975 18.2045 556.34 18.0776 549.927 17.3792C550.181 20.0458 550.181 20.0458 550.245 29.0617H542.562ZM553.229 48.1727C553.927 44.2997 554.308 38.4585 554.308 30.522H562.943V48.1727H553.229ZM542.054 48.1727V30.522H550.245C550.245 31.0299 550.245 31.7918 550.245 32.6807C550.245 39.1569 549.927 44.6172 549.292 48.1727H542.054ZM529.546 41.1886H521.419V25.3791H529.546V41.1886ZM529.546 42.6489V59.4743H521.419V42.6489H529.546Z" fill="black"/>
<path d="M613.72 42.055C612.116 43.6595 610.881 44.6468 608.598 46.1279C604.587 48.8432 601.995 50.0775 594.96 52.7928L595.454 53.7185C602.365 52.0523 607.796 49.9541 612.363 47.1153C613.473 48.3496 613.659 48.5964 614.399 49.7689C608.66 54.2122 603.106 57.2978 595.454 60.3216L595.7 61.1239C603.661 59.1491 609.215 56.8041 615.818 52.7311C616.374 54.2739 616.559 54.9527 616.929 56.5572C610.326 61.309 604.217 64.4563 594.651 67.9739L594.96 68.8996C604.71 66.4311 610.326 64.3329 617.361 60.5685C617.361 60.877 617.361 61.1239 617.361 61.2473C617.361 64.1478 616.744 67.0482 615.88 68.3442C615.386 69.0847 615.016 69.2081 612.98 69.2081C612.486 69.2081 607.796 68.7761 604.155 68.3442V69.2698C604.649 69.3933 605.142 69.5167 605.636 69.5784L607.24 69.887C608.722 70.1955 609.647 70.4424 610.203 70.6892C611.313 71.3063 611.684 72.0469 611.684 73.528C614.214 73.3428 615.078 73.2194 616.25 72.9108C617.67 72.4789 618.842 71.5532 619.398 70.3807C620.262 68.591 620.94 65.6288 620.94 63.4072C620.94 56.9275 618.225 50.5712 613.597 46.3748C615.757 44.8937 616.497 44.2766 618.781 42.055H619.645C620.632 49.8923 622.792 55.755 626.865 61.4942C629.58 65.3203 631.802 67.5419 635.566 69.9487C637.109 66.8014 638.096 65.9991 640.318 65.9991L640.565 65.1969C636.43 63.9626 633.591 62.3581 629.889 59.0874C627.852 57.2978 626.68 56.0635 625.322 54.027C628.284 52.6694 629.272 52.0523 633.345 49.2135C634.764 49.4604 635.011 49.5221 635.319 49.5221C635.751 49.5221 636.183 49.2752 636.183 49.0284C636.183 48.5964 635.319 47.9793 630.938 45.2023C629.58 47.9176 627.544 50.6329 624.767 53.1631C622.298 48.9667 621.311 46.0045 621.002 42.055H630.938V43.6595C631 44.0914 631.185 44.2149 631.678 44.2149C632.481 44.2149 634.085 44.0297 634.394 43.9063C634.702 43.7829 634.826 43.5977 634.826 43.1658C634.764 41.1293 634.764 41.1293 634.702 36.3775C634.702 36.1306 634.702 35.8221 634.702 33.8473C636.307 33.2919 637.047 32.8599 637.047 32.3662C637.047 32.1811 636.862 31.9342 636.368 31.5022C634.887 30.268 634.455 29.8977 632.789 28.6018C631.678 29.7743 631.37 30.2063 630.321 31.4405H617.423C619.83 29.6509 621.064 28.4167 623.779 25.3311C626.556 25.3311 627.482 25.1459 627.482 24.4671C627.482 24.2203 627.235 23.9734 626.556 23.2946C624.767 21.8135 624.211 21.3815 622.298 19.9004C620.94 21.2581 620.509 21.6901 619.213 23.1712H609.894C610.573 22.2455 610.881 21.8135 611.684 20.5793C614.029 20.209 614.893 19.9621 614.893 19.4067C614.893 18.9748 614.461 18.6662 613.782 18.4811C610.326 17.5554 610.326 17.5554 608.475 17C605.759 23.6649 601.254 29.836 594.96 35.5135L595.454 36.3158C597.799 34.8964 598.663 34.341 600.267 33.1067V35.4518C600.267 37.118 600.205 37.7351 600.082 44.1532C600.082 44.7703 600.329 44.9554 601.008 44.9554C601.81 44.9554 603.353 44.832 603.661 44.7086C603.908 44.6468 604.031 44.5234 604.155 44.2149V42.055H613.72ZM602.242 31.4405C604.71 29.2806 606.562 27.3676 608.845 24.5905H619.089C617.67 28.0464 616.991 29.404 615.572 31.4405H602.242ZM619.151 32.8599H630.938V40.6356H619.151V32.8599ZM615.695 40.6356H604.155V32.8599H615.695V40.6356ZM582.124 48.3496C585.209 44.9554 586.505 43.2892 589.221 38.9694V59.2108C589.221 63.6541 589.097 66.6162 588.912 72.4789C588.85 73.1577 589.159 73.4662 589.838 73.4662C589.899 73.4662 589.961 73.4662 590.023 73.4662C590.331 73.4045 590.702 73.4045 591.134 73.4045C592.923 73.3428 593.232 73.1577 593.355 72.3554C593.232 62.1113 593.232 62.1113 593.232 52.9162V39.0928C594.775 38.5991 595.33 38.2905 595.33 37.8586C595.33 37.3031 594.219 36.9946 590.64 36.5626C594.281 30.3297 596.132 26.3802 597.984 20.8261C600.144 20.4558 601.069 20.0856 601.069 19.4685C601.069 18.7896 599.588 18.2959 593.787 17.1234C593.294 20.8878 592.43 24.0351 590.517 29.0955C587.493 37.0563 584.654 42.6721 581.26 47.609L582.124 48.3496Z" fill="black"/>
<path d="M705.342 67.727C697.689 66.3694 693.184 64.6414 688.371 61.0004C691.765 57.4212 693.863 54.2739 697.257 47.3004C699.541 46.6216 700.343 46.2513 700.343 45.8811C700.343 45.6342 700.158 45.3874 699.726 45.0171C697.874 43.5977 697.257 43.1657 695.221 41.7464C694.233 42.8572 693.863 43.2275 692.814 44.4H677.695C675.411 44.4 673.807 44.2766 671.956 43.8446L672.449 46.2513C673.683 46.0045 674.054 45.9428 675.535 45.8811H676.707C678.25 52.2991 680.225 56.4955 683.742 60.9387C678.065 66.4928 672.634 70.0721 665.352 73.2194L665.723 74.1451C674.301 71.6149 680.225 68.4676 685.964 63.4072C690.099 67.6036 694.542 70.5658 700.713 73.2811C701.207 71.6766 701.639 70.9978 702.688 70.0721C703.552 69.2698 704.107 69.023 705.28 68.7761L705.342 67.727ZM693.123 45.8194C690.839 51.8671 689.05 55.0144 685.841 58.7788C681.891 54.891 679.484 50.8797 678.188 45.8194H693.123ZM650.171 22.9243C652.516 22.6774 653.565 22.6157 654.861 22.6157H670.228C670.598 22.6157 670.845 22.4923 670.845 22.2455C670.845 22.1837 670.721 21.9369 670.598 21.7518C668.5 19.9004 667.883 19.345 665.661 17.6788C664.365 19.1599 663.995 19.5919 662.699 21.1964H654.861C653.319 21.1964 651.652 21.0112 649.739 20.5792L650.171 22.9243ZM647.95 30.9468C650.171 30.5765 651.035 30.5148 653.997 30.5148H673.066C673.498 30.5148 673.745 30.3914 673.745 30.1446C673.745 30.0211 673.622 29.836 673.498 29.5892C671.338 27.7995 670.598 27.2441 668.253 25.5779C667.265 26.7504 666.216 27.9229 665.229 29.0955H653.997C651.159 29.0955 649.863 28.972 647.394 28.4783L647.95 30.9468ZM651.035 38.9693C652.887 38.6608 653.627 38.5991 655.725 38.5991H669.61C670.042 38.5991 670.289 38.4139 670.289 38.2288C670.289 38.1054 670.166 37.8585 670.042 37.6734C668.129 35.8838 667.451 35.3284 665.352 33.6004C664.365 34.7729 663.316 35.9455 662.267 37.1797H655.725C654.059 37.1797 652.763 37.0563 650.542 36.6243L651.035 38.9693ZM650.974 46.9919C652.948 46.745 653.751 46.6833 655.725 46.6833H669.24C669.425 46.6833 669.672 46.4982 669.672 46.2513C669.672 46.1896 669.487 45.8811 669.302 45.6342C667.389 43.9063 666.772 43.4126 664.674 41.7464C663.192 43.2275 662.76 43.7212 661.526 45.2639H655.725C653.936 45.2639 652.64 45.1405 650.48 44.6468L650.974 46.9919ZM654.615 68.7761H663.81V69.7635C663.81 70.3189 663.995 70.5041 664.735 70.5041C665.784 70.5041 667.142 70.3189 667.574 70.0721C667.883 69.9487 667.944 69.7635 668.006 69.3315C667.944 67.727 667.821 61.4324 667.821 59.7045C667.821 58.7788 667.821 57.9766 667.883 56.5572C669.61 55.5081 669.857 55.323 669.857 54.9527C669.857 54.7058 669.549 54.2739 669.117 53.9036C667.821 52.7928 667.389 52.4225 665.846 51.3734C665.044 52.2374 664.242 53.1013 663.501 53.9036H655.108C653.195 52.6694 652.64 52.2991 650.542 51.1266C650.665 54.0887 650.727 58.7788 650.727 62.0495C650.727 64.518 650.727 65.9991 650.542 72.8491C650.665 73.5279 650.974 73.7748 651.899 73.7748C652.455 73.7748 653.442 73.7131 653.936 73.5896C654.368 73.4662 654.553 73.3428 654.615 72.8491V68.7761ZM654.615 55.323H663.81V67.3568H654.615V55.323ZM670.042 43.8446C673.807 41.3761 675.72 39.5248 677.571 36.5009C679.669 33.1067 680.287 30.268 680.719 22.6157H689.605V32.3662C689.605 34.0324 689.605 34.5878 689.543 36.1923V36.3775C689.543 37.982 689.79 38.7225 690.592 39.2162C691.333 39.6482 692.567 39.7716 696.517 39.7716C703.182 39.7716 704.848 39.3396 704.848 37.6117C704.848 37.0563 704.539 36.5626 704.107 36.3157C702.873 35.6986 702.811 35.6369 702.811 34.7112C702.811 34.7112 702.811 34.5878 702.811 34.4644L703.367 26.5036L702.565 26.4419C700.651 33.9707 700.466 34.7112 699.973 35.4518C699.479 36.1306 698.862 36.3157 696.887 36.3157C693.801 36.3157 693.555 36.254 693.555 35.2049V23.9734C695.468 22.986 695.838 22.6774 695.838 22.2455C695.838 21.9986 695.715 21.7518 695.159 21.1964C693.801 20.0238 693.308 19.6536 691.703 18.4193C690.654 19.6536 690.284 20.0238 689.235 21.1964H681.027C679.114 19.777 678.497 19.345 676.337 18.1108C676.522 20.0855 676.584 20.8261 676.584 22.3689C676.584 33.045 675.041 37.6734 669.549 43.2275L670.042 43.8446Z" fill="black"/>
<path d="M753.258 39.2162C753.258 28.7252 753.258 28.7252 753.258 21.4432C755.665 20.5793 755.974 20.3941 755.974 19.8387C755.974 19.2216 754.986 18.9747 751.716 18.7279C751.037 18.6662 749.926 18.6045 748.507 18.4811C748.939 21.1347 748.939 21.8135 749 39.2162H741.41C739.558 39.2162 737.707 39.0311 736.041 38.6608L736.411 40.8824C738.324 40.6356 739.126 40.5739 741.41 40.5739H749C749.062 42.3018 749.062 44.0914 749.062 44.5851C749.062 55.755 748.939 65.1969 748.753 72.4788C748.753 73.1577 749.062 73.3428 749.926 73.3428C751.098 73.3428 752.641 73.1577 753.073 72.9725C753.444 72.8491 753.567 72.6023 753.629 72.1086C753.258 60.1365 753.258 57.7914 753.258 40.5739H768.501C768.871 40.5739 769.242 40.327 769.242 40.0185C769.242 39.8333 769.118 39.5248 768.871 39.2162C766.65 37.118 765.909 36.5009 763.503 34.5261C761.651 36.5009 761.096 37.118 759.491 39.2162H753.258ZM715.182 22.7392C716.787 22.554 717.589 22.4923 719.44 22.4923H736.164C736.534 22.4923 736.781 22.3072 736.781 22.0603C736.781 21.9369 736.658 21.7518 736.411 21.4432C734.251 19.7153 733.572 19.1599 731.412 17.432C729.87 18.913 729.438 19.4067 727.957 21.0729H719.44C718.144 21.0729 716.17 20.8878 714.812 20.641L715.182 22.7392ZM712.405 31.2554C714.133 31.0085 714.935 30.9468 717.095 30.9468H739.065C739.25 30.9468 739.497 30.7 739.497 30.5148C739.497 30.4531 739.435 30.268 739.25 30.0829C737.152 28.1698 736.473 27.5527 734.189 25.7013C732.708 27.3058 732.215 27.8612 730.734 29.5275H717.404C715.676 29.5275 713.701 29.3423 712.035 29.0338L712.405 31.2554ZM714.997 39.4013C716.787 39.2779 717.589 39.2162 719.44 39.2162H734.868C735.115 39.2162 735.362 39.0311 735.362 38.8459C735.362 38.7225 735.3 38.4757 735.115 38.2905C733.202 36.5009 732.585 35.9455 730.487 34.4027C729.129 35.8221 728.759 36.3157 727.401 37.7968H719.44C717.836 37.7968 716.602 37.6734 714.627 37.3031L714.997 39.4013ZM715.121 47.8558C717.034 47.6707 718.021 47.609 719.44 47.609H734.992C735.239 47.609 735.485 47.4239 735.485 47.177C735.485 47.0536 735.362 46.8685 735.115 46.5599C733.264 44.7703 732.647 44.2149 730.672 42.4869C729.314 44.0914 728.882 44.5851 727.525 46.1896H719.44C717.404 46.1896 716.416 46.1279 714.812 45.7576L715.121 47.8558ZM719.379 69.0847H729.314V71.7383C729.376 72.2937 729.684 72.5406 730.363 72.5406C731.104 72.5406 732.4 72.4171 732.893 72.2937C733.387 72.1703 733.511 71.9234 733.572 71.368C733.449 69.455 733.387 63.7158 733.387 59.1491C733.387 58.6554 733.387 58.1617 733.387 57.4212C734.621 56.5572 735.3 55.8167 735.3 55.4464C735.3 55.323 735.239 55.1995 735.177 55.0144C735.177 54.9527 735.115 54.8293 735.053 54.6441L731.351 51.682C730.487 52.6694 729.561 53.6568 728.697 54.6441H719.872C717.836 53.1631 717.219 52.7311 715.121 51.4351C715.306 53.5333 715.367 54.3356 715.367 56.1252C715.367 61.8027 715.244 69.3933 715.121 72.4788C715.182 73.096 715.429 73.2811 716.17 73.2811C718.823 73.2811 719.379 73.096 719.379 72.1086V69.0847ZM719.379 56.0635H729.314V67.6653H719.379V56.0635Z" fill="black"/>
<path d="M793.357 35.1432C791.444 39.9567 790.95 40.9441 788.173 45.6959C783.421 45.8193 783.236 45.8193 782.681 45.8193C781.878 45.8811 781.385 45.8811 780.953 45.8811C779.78 45.8811 778.855 45.8193 777.559 45.6959C778.484 50.6946 779.04 52.4225 779.904 52.4225C780.521 52.4225 780.829 51.682 780.953 49.7689C785.643 49.4603 794.653 48.4112 800.824 47.5473C802.367 47.3004 807.242 46.4982 814.4 45.3257C815.141 46.2513 815.326 46.4365 816.931 48.5964C819.893 52.5459 819.893 52.5459 820.325 52.5459C821.189 52.5459 821.929 50.818 821.929 48.7198C821.929 47.6707 821.682 46.9302 821.065 46.1896C820.201 45.1405 817.98 43.4743 815.203 41.6229C811.13 39.0311 809.957 38.3522 807.119 37.1797L806.748 37.7351C809.525 40.2036 810.945 41.5612 813.29 44.0914C801.194 45.2022 797.059 45.5108 790.148 45.6959C793.295 42.3635 793.295 42.3635 798.726 35.1432H821.312C821.497 35.1432 821.682 35.0198 821.682 34.8347C821.682 34.7112 821.559 34.5878 821.374 34.4027C818.967 32.4279 818.165 31.8108 816.005 30.0828C814.647 31.6256 814.215 32.0576 812.919 33.7238H785.581C781.138 33.2919 781.138 33.2919 779.965 33.1684L780.644 35.5752C782.866 35.2049 783.853 35.1432 785.581 35.1432H793.357ZM780.644 24.5905C780.768 23.4797 780.768 22.986 780.768 21.9986C780.768 21.69 780.768 21.1964 780.706 20.5792H779.657C779.348 22.8009 778.731 24.5288 777.682 26.5036C776.88 27.9846 776.324 28.6018 773.794 30.4531C773.115 30.9468 772.93 31.2554 772.93 31.8725C772.93 33.2919 774.288 35.5752 775.152 35.5752C776.016 35.5752 777.62 34.2175 778.484 32.6747C779.533 30.7617 780.089 28.972 780.521 26.0099H820.14C819.769 27.9846 819.584 28.7869 818.844 31.2554L819.461 31.6256C821.127 30.3297 821.436 30.0211 823.349 28.2315C823.596 27.9846 823.966 27.6144 824.46 27.1207C825.015 26.9973 825.694 26.9355 826.496 26.8121C827.298 26.6887 827.915 26.5653 828.101 26.4419C828.224 26.3184 828.347 26.1333 828.347 26.0099C828.347 25.763 828.224 25.5779 827.915 25.3928C825.57 23.6031 824.83 23.0477 822.3 21.3815C820.757 23.1094 820.757 23.1094 819.461 24.5905H802.305V20.1473C803.601 19.777 804.403 19.5301 804.712 19.4067C804.959 19.2833 805.205 18.9747 805.205 18.7896C805.205 18.0491 803.848 17.7405 797.923 17.1851C798.109 18.7896 798.109 19.345 798.109 21.69V24.5905H780.644ZM802.305 58.2851V52.8545C804.65 52.1139 805.02 51.9288 805.02 51.4968C805.02 50.9414 804.588 50.818 797.8 49.8306C798.047 52.7311 798.109 54.1504 798.109 55.9401V58.2851H783.853C782.557 58.2851 779.718 57.9766 777.929 57.6063L778.608 60.0131C781.2 59.7662 782.372 59.7045 783.73 59.7045H798.109V70.1955H778.669C777.559 70.1955 777.373 70.1955 772.745 69.5784L773.362 72.0468C774.411 71.8617 777.497 71.6149 778.669 71.6149H828.779C829.026 71.6149 829.273 71.4297 829.273 71.2446C829.273 71.0595 829.088 70.8126 828.779 70.5658C826.187 68.4676 825.385 67.8504 822.793 65.9374C821.004 67.727 820.51 68.3441 818.905 70.1955H802.305V59.7045H822.917C823.225 59.7045 823.472 59.5194 823.472 59.3342C823.472 59.2108 823.41 59.0257 823.225 58.7788C820.942 56.7423 820.201 56.1252 817.733 54.1504C816.128 56.0018 815.635 56.5572 814.215 58.2851H802.305Z" fill="black"/>
<path d="M280.723 128.794C277.135 124.515 273.313 120.13 269.257 115.641C265.201 111.152 261.145 106.687 257.089 102.246C257.058 103.147 257.026 104.354 256.995 105.866C256.964 107.379 256.948 109.438 256.948 112.045C256.948 112.721 256.956 113.557 256.972 114.555C256.987 115.552 257.003 116.598 257.019 117.692C257.034 118.787 257.058 119.897 257.089 121.023C257.12 122.149 257.151 123.195 257.182 124.161C257.214 125.126 257.245 125.971 257.276 126.695C257.307 127.419 257.338 127.909 257.37 128.167C256.87 128.103 256.324 128.07 255.732 128.07C255.108 128.07 254.53 128.103 254 128.167C254.062 127.845 254.133 127.25 254.211 126.381C254.289 125.512 254.359 124.474 254.421 123.268C254.484 122.061 254.554 120.749 254.632 119.334C254.71 117.918 254.772 116.502 254.819 115.086C254.866 113.67 254.905 112.286 254.936 110.935C254.967 109.583 254.983 108.376 254.983 107.314C254.983 104.225 254.975 101.57 254.959 99.3499C254.944 97.1295 254.905 95.4723 254.842 94.3782H255.591C257.494 96.502 259.53 98.7788 261.699 101.208C263.867 103.638 266.02 106.035 268.157 108.401C270.294 110.766 272.322 113.002 274.241 115.11C276.16 117.218 277.837 119.012 279.272 120.492V113.927C279.272 110.549 279.249 107.258 279.202 104.056C279.155 100.854 279.054 97.8375 278.898 95.0057C279.522 95.1666 280.052 95.247 280.489 95.247C280.864 95.247 281.363 95.1666 281.987 95.0057C281.924 95.7136 281.854 96.7756 281.776 98.1915C281.698 99.6074 281.62 101.12 281.542 102.729C281.464 104.338 281.394 105.915 281.332 107.459C281.269 109.004 281.238 110.243 281.238 111.176C281.238 111.981 281.238 112.946 281.238 114.072C281.238 115.166 281.246 116.309 281.261 117.499C281.277 118.69 281.293 119.889 281.308 121.095C281.324 122.302 281.339 123.428 281.355 124.474C281.371 125.52 281.378 126.429 281.378 127.202C281.378 127.909 281.378 128.44 281.378 128.794H280.723Z" fill="black"/>
<path d="M292.067 117.141C292.067 118.468 292.186 119.747 292.423 120.978C292.66 122.21 293.064 123.307 293.634 124.271C294.203 125.234 294.963 126 295.912 126.568C296.862 127.136 298.032 127.421 299.425 127.421C300.817 127.421 301.988 127.136 302.938 126.568C303.887 126 304.647 125.234 305.216 124.271C305.786 123.307 306.189 122.21 306.427 120.978C306.664 119.747 306.783 118.468 306.783 117.141C306.783 115.815 306.664 114.536 306.427 113.304C306.189 112.073 305.786 110.975 305.216 110.012C304.647 109.049 303.887 108.283 302.938 107.715C301.988 107.146 300.817 106.862 299.425 106.862C298.032 106.862 296.862 107.146 295.912 107.715C294.963 108.283 294.203 109.049 293.634 110.012C293.064 110.975 292.66 112.073 292.423 113.304C292.186 114.536 292.067 115.815 292.067 117.141ZM287.89 117.141C287.89 114.994 288.23 113.17 288.91 111.67C289.591 110.17 290.485 108.954 291.592 108.022C292.7 107.091 293.942 106.412 295.319 105.985C296.695 105.559 298.064 105.346 299.425 105.346C300.817 105.346 302.194 105.559 303.555 105.985C304.916 106.412 306.15 107.091 307.257 108.022C308.365 108.954 309.259 110.17 309.939 111.67C310.62 113.17 310.96 114.994 310.96 117.141C310.96 119.289 310.62 121.113 309.939 122.613C309.259 124.113 308.365 125.328 307.257 126.26C306.15 127.192 304.916 127.847 303.555 128.226C302.194 128.605 300.817 128.794 299.425 128.794C298.064 128.794 296.695 128.605 295.319 128.226C293.942 127.847 292.7 127.192 291.592 126.26C290.485 125.328 289.591 124.113 288.91 122.613C288.23 121.113 287.89 119.289 287.89 117.141Z" fill="black"/>
<path d="M326.799 109.722C326.643 109.532 326.34 109.358 325.888 109.199C325.437 109.04 324.978 108.961 324.511 108.961C323.764 108.961 323.095 109.136 322.503 109.484C321.912 109.833 321.414 110.301 321.009 110.888C320.605 111.474 320.293 112.172 320.075 112.981C319.857 113.789 319.749 114.653 319.749 115.573V120.805C319.749 122.93 319.756 124.555 319.772 125.681C319.787 126.807 319.842 127.719 319.935 128.416C319.313 128.353 318.69 128.321 318.068 128.321C317.383 128.321 316.729 128.353 316.107 128.416C316.2 127.338 316.254 125.871 316.27 124.016C316.286 122.161 316.293 119.886 316.293 117.19V115.668C316.293 114.431 316.286 113.004 316.27 111.387C316.254 109.77 316.2 107.915 316.107 105.822C316.449 105.885 316.776 105.941 317.087 105.988C317.398 106.036 317.725 106.06 318.068 106.06C318.348 106.06 318.643 106.036 318.955 105.988C319.266 105.941 319.593 105.885 319.935 105.822C319.811 106.963 319.741 107.867 319.725 108.533C319.71 109.199 319.702 109.833 319.702 110.436L319.795 110.483C321.632 107.058 323.686 105.346 325.958 105.346C326.239 105.346 326.48 105.362 326.682 105.394C326.885 105.425 327.141 105.505 327.453 105.631C327.297 106.012 327.204 106.591 327.172 107.368C327.141 108.145 327.126 108.85 327.126 109.484L326.799 109.722Z" fill="black"/>
<path d="M332.599 97.5594C332.599 96.8938 332.822 96.3232 333.267 95.8478C333.712 95.3723 334.245 95.1346 334.868 95.1346C335.491 95.1346 336.025 95.3723 336.47 95.8478C336.915 96.3232 337.138 96.8938 337.138 97.5594C337.138 98.225 336.915 98.7956 336.47 99.271C336.025 99.7465 335.491 99.9842 334.868 99.9842C334.245 99.9842 333.712 99.7465 333.267 99.271C332.822 98.7956 332.599 98.225 332.599 97.5594ZM333.222 114.723C333.222 113.297 333.2 111.799 333.155 110.23C333.111 108.661 333.014 107.195 332.866 105.832C333.697 105.991 334.364 106.07 334.868 106.07C335.373 106.07 336.04 105.991 336.871 105.832C336.722 107.195 336.626 108.661 336.581 110.23C336.537 111.799 336.515 113.297 336.515 114.723V119.668C336.515 121.094 336.537 122.592 336.581 124.161C336.626 125.73 336.722 127.148 336.871 128.416C336.188 128.353 335.521 128.321 334.868 128.321C334.216 128.321 333.548 128.353 332.866 128.416C333.014 127.148 333.111 125.73 333.155 124.161C333.2 122.592 333.222 121.094 333.222 119.668V114.723Z" fill="black"/>
<path d="M345.31 107.379C345.31 106.356 345.302 105.243 345.286 104.039C345.27 102.835 345.247 101.646 345.215 100.473C345.184 99.2988 345.144 98.1778 345.097 97.1094C345.05 96.041 344.995 95.1306 344.932 94.3782C345.814 94.5287 346.523 94.6039 347.059 94.6039C347.595 94.6039 348.304 94.5287 349.186 94.3782C349.123 95.1306 349.068 96.041 349.021 97.1094C348.974 98.1778 348.934 99.2988 348.903 100.473C348.871 101.646 348.847 102.835 348.832 104.039C348.816 105.243 348.808 106.356 348.808 107.379V115.596C348.808 116.167 348.997 116.453 349.375 116.453C349.628 116.453 349.903 116.348 350.203 116.137C350.502 115.927 350.841 115.686 351.219 115.415C351.503 115.204 351.983 114.798 352.661 114.196C353.339 113.594 354.095 112.894 354.93 112.097C355.765 111.299 356.624 110.449 357.507 109.546C358.389 108.643 359.193 107.786 359.918 106.973C360.548 107.124 361.147 107.199 361.714 107.199C362.061 107.199 362.408 107.176 362.754 107.131C363.101 107.086 363.542 107.033 364.078 106.973C362.092 108.508 360.194 110.02 358.381 111.51C356.569 113 354.844 114.512 353.205 116.047C355.001 118.124 356.853 120.2 358.759 122.277C360.666 124.353 362.612 126.4 364.598 128.416C364.062 128.356 363.582 128.326 363.156 128.326C362.731 128.326 362.313 128.326 361.903 128.326C361.557 128.326 361.178 128.326 360.769 128.326C360.359 128.326 359.933 128.356 359.492 128.416C358.799 127.664 358.011 126.784 357.129 125.775C356.246 124.767 355.371 123.766 354.505 122.773C353.638 121.78 352.811 120.847 352.023 119.974C351.235 119.102 350.557 118.379 349.99 117.808C349.895 117.687 349.785 117.582 349.659 117.492C349.533 117.401 349.407 117.356 349.281 117.356C348.966 117.356 348.808 117.537 348.808 117.898V120.606C348.808 121.961 348.832 123.277 348.879 124.557C348.926 125.836 349.029 127.122 349.186 128.416C348.461 128.356 347.752 128.326 347.059 128.326C346.366 128.326 345.656 128.356 344.932 128.416C344.995 127.724 345.05 126.851 345.097 125.798C345.144 124.745 345.184 123.631 345.215 122.457C345.247 121.284 345.27 120.095 345.286 118.891C345.302 117.687 345.31 116.574 345.31 115.55V107.379Z" fill="black"/>
<path d="M380.887 116.525C380.35 116.715 379.726 116.873 379.015 116.999C378.304 117.125 377.585 117.26 376.859 117.402C376.132 117.544 375.413 117.726 374.703 117.947C373.992 118.168 373.36 118.468 372.807 118.847C372.254 119.226 371.812 119.699 371.48 120.268C371.149 120.836 370.983 121.563 370.983 122.447C370.983 123.931 371.409 125.052 372.262 125.81C373.115 126.568 374.063 126.947 375.105 126.947C376.306 126.947 377.404 126.615 378.399 125.952C379.394 125.289 380.16 124.515 380.697 123.631L380.887 116.525ZM369.182 108.093C370.604 107.02 371.915 106.293 373.115 105.914C374.316 105.535 375.548 105.346 376.811 105.346C377.949 105.346 378.991 105.512 379.939 105.843C380.887 106.175 381.692 106.649 382.356 107.265C383.019 107.88 383.54 108.622 383.919 109.491C384.299 110.359 384.488 111.315 384.488 112.357C384.488 114.157 384.456 115.949 384.393 117.733C384.33 119.518 384.299 121.405 384.299 123.394C384.299 123.773 384.306 124.176 384.322 124.602C384.338 125.028 384.409 125.407 384.535 125.739C384.662 126.071 384.843 126.347 385.08 126.568C385.317 126.789 385.673 126.9 386.147 126.9C386.305 126.9 386.47 126.892 386.644 126.876C386.818 126.86 386.984 126.805 387.142 126.71V127.752C386.794 127.91 386.36 128.037 385.839 128.131C385.317 128.226 384.741 128.273 384.109 128.273C383.098 128.273 382.324 128.013 381.787 127.492C381.25 126.971 380.934 126.3 380.839 125.478C379.702 126.615 378.581 127.452 377.475 127.989C376.369 128.526 375.011 128.794 373.4 128.794C372.61 128.794 371.836 128.684 371.078 128.463C370.319 128.242 369.648 127.879 369.064 127.373C368.479 126.868 368.005 126.26 367.642 125.55C367.279 124.839 367.097 124.026 367.097 123.11C367.097 121.215 367.689 119.747 368.874 118.704C370.059 117.662 371.694 116.968 373.779 116.62C375.485 116.336 376.819 116.091 377.783 115.886C378.746 115.681 379.457 115.468 379.915 115.246C380.373 115.025 380.65 114.765 380.745 114.465C380.839 114.165 380.887 113.778 380.887 113.304C380.887 112.515 380.792 111.757 380.602 111.03C380.413 110.304 380.113 109.673 379.702 109.136C379.291 108.599 378.754 108.165 378.091 107.833C377.427 107.501 376.622 107.336 375.674 107.336C374.41 107.336 373.234 107.62 372.144 108.188C371.054 108.757 370.24 109.546 369.703 110.557H369.182V108.093Z" fill="black"/>
<path d="M406.866 115.05C406.866 112.671 406.405 110.872 405.482 109.651C404.559 108.43 403.285 107.82 401.662 107.82C399.434 107.82 397.803 108.501 396.769 109.865C395.734 111.229 395.217 113.147 395.217 115.621V119.664C395.217 121.091 395.241 122.589 395.289 124.159C395.336 125.729 395.44 127.148 395.599 128.416C394.867 128.353 394.151 128.321 393.45 128.321C392.75 128.321 392.034 128.353 391.302 128.416C391.461 127.148 391.565 125.729 391.612 124.159C391.66 122.589 391.684 121.091 391.684 119.664V114.717C391.684 113.29 391.66 111.791 391.612 110.222C391.565 108.652 391.461 107.185 391.302 105.822C392.193 105.98 392.909 106.06 393.45 106.06C393.705 106.06 393.984 106.036 394.286 105.988C394.588 105.941 394.946 105.885 395.36 105.822C395.265 107.09 395.217 108.359 395.217 109.627H395.312C396.204 108.263 397.27 107.209 398.511 106.464C399.752 105.719 401.233 105.346 402.951 105.346C403.842 105.346 404.742 105.473 405.649 105.727C406.556 105.98 407.375 106.416 408.108 107.035C408.84 107.653 409.436 108.493 409.898 109.556C410.359 110.618 410.59 111.974 410.59 113.623C410.59 114.986 410.558 116.39 410.495 117.832C410.431 119.275 410.399 120.805 410.399 122.423V125.515C410.399 126.022 410.407 126.521 410.423 127.013C410.439 127.505 410.463 127.972 410.495 128.416C409.858 128.353 409.19 128.321 408.489 128.321C407.821 128.321 407.169 128.353 406.532 128.416C406.596 126.767 406.667 125.071 406.747 123.327C406.826 121.582 406.866 119.791 406.866 117.951V115.05Z" fill="black"/>
<path d="M425.571 106.862C424.415 106.862 423.439 107.13 422.643 107.667C421.847 108.204 421.191 108.875 420.676 109.68C420.161 110.486 419.77 111.37 419.505 112.333C419.239 113.296 419.075 114.204 419.013 115.057C419.981 115.089 420.988 115.12 422.034 115.152C423.08 115.183 424.103 115.199 425.102 115.199C426.133 115.199 427.179 115.183 428.241 115.152C429.302 115.12 430.333 115.089 431.332 115.057C431.332 114.204 431.262 113.304 431.121 112.357C430.981 111.409 430.7 110.525 430.278 109.704C429.857 108.883 429.271 108.204 428.522 107.667C427.772 107.13 426.789 106.862 425.571 106.862ZM414.75 117.804C414.75 113.92 415.664 110.873 417.491 108.662C419.317 106.451 421.98 105.346 425.477 105.346C427.132 105.346 428.561 105.607 429.763 106.128C430.965 106.649 431.972 107.343 432.784 108.212C433.596 109.08 434.197 110.099 434.588 111.267C434.978 112.436 435.173 113.683 435.173 115.01C435.173 115.325 435.165 115.633 435.15 115.933C435.134 116.233 435.111 116.541 435.08 116.857C433.393 116.825 431.723 116.794 430.068 116.762C428.412 116.731 426.742 116.715 425.055 116.715C424.025 116.715 423.002 116.731 421.987 116.762C420.972 116.794 419.95 116.825 418.919 116.857C418.888 117.015 418.872 117.252 418.872 117.568V118.183C418.872 119.415 419.052 120.568 419.411 121.641C419.77 122.715 420.293 123.639 420.98 124.413C421.667 125.186 422.51 125.802 423.51 126.26C424.509 126.718 425.664 126.947 426.976 126.947C427.601 126.947 428.241 126.86 428.896 126.686C429.552 126.513 430.192 126.276 430.817 125.976C431.442 125.676 432.027 125.321 432.574 124.91C433.12 124.5 433.596 124.057 434.002 123.584L434.236 123.726L433.955 126.047C433.019 126.805 431.855 127.452 430.466 127.989C429.076 128.526 427.632 128.794 426.133 128.794C424.447 128.794 422.909 128.534 421.519 128.013C420.129 127.492 418.927 126.734 417.912 125.739C416.897 124.744 416.117 123.568 415.57 122.21C415.024 120.852 414.75 119.383 414.75 117.804Z" fill="black"/>
<path d="M460.445 107.211C460.445 105.031 460.406 102.892 460.327 100.794C460.249 98.697 460.163 96.5582 460.069 94.3782C461.479 94.4443 462.882 94.5021 464.277 94.5516C465.672 94.6012 467.074 94.6259 468.485 94.6259C469.896 94.6259 471.322 94.6012 472.764 94.5516C474.206 94.5021 475.773 94.4443 477.466 94.3782C477.372 94.8737 477.325 95.3691 477.325 95.8646C477.325 96.36 477.372 96.8555 477.466 97.351C476.619 97.2519 475.601 97.161 474.41 97.0785C473.218 96.9959 472.004 96.9298 470.766 96.8803C469.527 96.8307 468.336 96.7894 467.192 96.7564C466.048 96.7234 465.1 96.7069 464.347 96.7069C464.316 97.8629 464.292 98.9695 464.277 100.026C464.261 101.083 464.253 102.14 464.253 103.197C464.253 104.353 464.261 105.419 464.277 106.393C464.292 107.367 464.3 108.383 464.3 109.44C466.369 109.44 468.415 109.407 470.436 109.341C472.458 109.275 474.457 109.143 476.431 108.945C476.306 109.44 476.243 109.936 476.243 110.431C476.243 110.927 476.306 111.422 476.431 111.917C475.648 111.818 474.762 111.744 473.775 111.695C472.787 111.645 471.761 111.604 470.695 111.571C469.629 111.538 468.548 111.521 467.451 111.521C466.354 111.521 465.303 111.521 464.3 111.521V115.733C464.3 117.913 464.34 120.06 464.418 122.173C464.496 124.287 464.582 126.368 464.676 128.416C463.956 128.35 463.188 128.317 462.373 128.317C461.558 128.317 460.79 128.35 460.069 128.416C460.163 126.368 460.249 124.287 460.327 122.173C460.406 120.06 460.445 117.913 460.445 115.733V107.211Z" fill="black"/>
<path d="M482.382 97.5594C482.382 96.8938 482.623 96.3232 483.105 95.8478C483.587 95.3723 484.166 95.1346 484.841 95.1346C485.516 95.1346 486.094 95.3723 486.576 95.8478C487.058 96.3232 487.299 96.8938 487.299 97.5594C487.299 98.225 487.058 98.7956 486.576 99.271C486.094 99.7465 485.516 99.9842 484.841 99.9842C484.166 99.9842 483.587 99.7465 483.105 99.271C482.623 98.7956 482.382 98.225 482.382 97.5594ZM483.057 114.723C483.057 113.297 483.033 111.799 482.985 110.23C482.937 108.661 482.832 107.195 482.672 105.832C483.571 105.991 484.294 106.07 484.841 106.07C485.387 106.07 486.11 105.991 487.01 105.832C486.849 107.195 486.745 108.661 486.696 110.23C486.648 111.799 486.624 113.297 486.624 114.723V119.668C486.624 121.094 486.648 122.592 486.696 124.161C486.745 125.73 486.849 127.148 487.01 128.416C486.271 128.353 485.548 128.321 484.841 128.321C484.134 128.321 483.411 128.353 482.672 128.416C482.832 127.148 482.937 125.73 482.985 124.161C483.033 122.592 483.057 121.094 483.057 119.668V114.723Z" fill="black"/>
<path d="M494.476 107.146C494.476 106.111 494.469 104.985 494.453 103.768C494.438 102.551 494.415 101.349 494.384 100.162C494.353 98.9753 494.315 97.8418 494.268 96.7615C494.222 95.6813 494.168 94.7607 494.107 94C494.969 94.1522 495.663 94.2282 496.187 94.2282C496.711 94.2282 497.404 94.1522 498.267 94C498.205 94.7607 498.151 95.6813 498.105 96.7615C498.059 97.8418 498.02 98.9753 497.989 100.162C497.959 101.349 497.936 102.551 497.92 103.768C497.905 104.985 497.897 106.111 497.897 107.146V115.407C497.897 116.442 497.905 117.568 497.92 118.785C497.936 120.002 497.959 121.204 497.989 122.391C498.02 123.578 498.059 124.704 498.105 125.769C498.151 126.834 498.205 127.716 498.267 128.416C497.558 128.355 496.865 128.325 496.187 128.325C495.509 128.325 494.815 128.355 494.107 128.416C494.168 127.716 494.222 126.834 494.268 125.769C494.315 124.704 494.353 123.578 494.384 122.391C494.415 121.204 494.438 120.002 494.453 118.785C494.469 117.568 494.476 116.442 494.476 115.407V107.146Z" fill="black"/>
<path d="M505.454 114.717C505.454 113.29 505.43 111.791 505.383 110.222C505.335 108.652 505.232 107.185 505.074 105.822C505.959 105.98 506.671 106.06 507.208 106.06C507.461 106.06 507.737 106.036 508.038 105.988C508.338 105.941 508.693 105.885 509.104 105.822C509.01 107.09 508.962 108.359 508.962 109.627H509.057C510.732 106.773 513.087 105.346 516.121 105.346C516.911 105.346 517.686 105.465 518.444 105.703C519.203 105.941 519.89 106.266 520.507 106.678C521.123 107.09 521.653 107.59 522.095 108.176C522.538 108.763 522.838 109.389 522.996 110.055H523.091C523.849 108.533 524.884 107.368 526.196 106.559C527.508 105.75 529.017 105.346 530.724 105.346C531.767 105.346 532.731 105.489 533.616 105.774C534.501 106.06 535.268 106.503 535.915 107.106C536.563 107.709 537.069 108.485 537.433 109.437C537.796 110.388 537.978 111.53 537.978 112.862C537.978 113.401 537.962 113.987 537.93 114.622C537.899 115.256 537.867 115.993 537.836 116.834C537.804 117.674 537.772 118.625 537.741 119.688C537.709 120.75 537.693 121.979 537.693 123.374C537.693 124.23 537.701 125.055 537.717 125.848C537.733 126.64 537.772 127.497 537.836 128.416C537.488 128.353 537.14 128.321 536.793 128.321C536.445 128.321 536.113 128.321 535.797 128.321C535.449 128.321 535.102 128.321 534.754 128.321C534.406 128.321 534.059 128.353 533.711 128.416C533.806 127.623 533.908 126.022 534.019 123.612C534.13 121.202 534.185 117.84 534.185 113.528C534.185 112.735 534.098 111.99 533.924 111.292C533.75 110.594 533.474 109.992 533.094 109.484C532.715 108.977 532.209 108.573 531.577 108.271C530.945 107.97 530.155 107.82 529.207 107.82C528.069 107.82 527.105 108.042 526.315 108.485C525.524 108.929 524.908 109.453 524.466 110.055C524.213 110.404 524.015 110.753 523.873 111.102C523.731 111.451 523.62 111.982 523.541 112.695C523.462 113.409 523.407 114.408 523.375 115.692C523.344 116.976 523.328 118.744 523.328 120.996C523.328 122.359 523.351 123.604 523.399 124.73C523.446 125.856 523.502 127.084 523.565 128.416C522.838 128.353 522.142 128.321 521.479 128.321C520.815 128.321 520.12 128.353 519.393 128.416C519.551 126.672 519.661 124.896 519.724 123.089C519.788 121.281 519.819 119.505 519.819 117.761C519.819 116.271 519.811 115.105 519.796 114.265C519.78 113.425 519.74 112.759 519.677 112.267C519.614 111.776 519.527 111.371 519.416 111.054C519.306 110.737 519.156 110.388 518.966 110.008C518.618 109.405 518.073 108.89 517.33 108.462C516.587 108.034 515.821 107.82 515.031 107.82C512.945 107.82 511.412 108.501 510.432 109.865C509.452 111.229 508.962 113.147 508.962 115.621V119.664C508.962 121.091 508.986 122.589 509.033 124.159C509.081 125.729 509.183 127.148 509.341 128.416C508.614 128.353 507.903 128.321 507.208 128.321C506.513 128.321 505.801 128.353 505.074 128.416C505.232 127.148 505.335 125.729 505.383 124.159C505.43 122.589 505.454 121.091 505.454 119.664V114.717Z" fill="black"/>
<path d="M563.064 107.211C563.064 105.031 563.025 102.892 562.947 100.794C562.87 98.697 562.784 96.5582 562.691 94.3782C563.873 94.4443 565.048 94.5021 566.215 94.5516C567.382 94.6012 568.556 94.6259 569.739 94.6259C570.921 94.6259 572.096 94.5846 573.263 94.5021C574.43 94.4195 575.605 94.3782 576.787 94.3782C579.525 94.3782 581.867 94.7581 583.812 95.5178C585.757 96.2775 587.352 97.3592 588.596 98.763C589.841 100.167 590.751 101.884 591.327 103.916C591.903 105.947 592.19 108.235 592.19 110.778C592.19 114.081 591.654 116.864 590.58 119.126C589.506 121.389 588.137 123.214 586.472 124.601C584.808 125.989 582.972 126.971 580.965 127.549C578.958 128.127 577.036 128.416 575.2 128.416C574.142 128.416 573.1 128.4 572.073 128.367C571.046 128.334 570.003 128.317 568.945 128.317C567.887 128.317 566.845 128.317 565.818 128.317C564.791 128.317 563.749 128.35 562.691 128.416C562.784 126.368 562.87 124.287 562.947 122.173C563.025 120.06 563.064 117.913 563.064 115.733V107.211ZM566.892 115.733C566.892 119.3 566.985 122.801 567.172 126.236C567.825 126.401 568.712 126.525 569.832 126.608C570.953 126.69 572.104 126.732 573.286 126.732C574.998 126.732 576.709 126.517 578.421 126.088C580.132 125.658 581.665 124.849 583.018 123.66C584.372 122.471 585.477 120.844 586.332 118.78C587.188 116.715 587.616 114.048 587.616 110.778C587.616 107.904 587.282 105.543 586.613 103.693C585.943 101.843 585.026 100.382 583.859 99.308C582.692 98.2345 581.299 97.4913 579.681 97.0785C578.063 96.6656 576.289 96.4591 574.36 96.4591C572.96 96.4591 571.653 96.5087 570.439 96.6078C569.225 96.7069 568.136 96.8225 567.172 96.9546C567.078 98.5401 567.008 100.2 566.962 101.934C566.915 103.668 566.892 105.427 566.892 107.211V115.733Z" fill="black"/>
<path d="M607.779 106.862C606.624 106.862 605.648 107.13 604.852 107.667C604.055 108.204 603.399 108.875 602.884 109.68C602.369 110.486 601.979 111.37 601.713 112.333C601.448 113.296 601.284 114.204 601.221 115.057C602.189 115.089 603.196 115.12 604.243 115.152C605.289 115.183 606.311 115.199 607.311 115.199C608.341 115.199 609.387 115.183 610.449 115.152C611.511 115.12 612.541 115.089 613.541 115.057C613.541 114.204 613.47 113.304 613.33 112.357C613.189 111.409 612.908 110.525 612.487 109.704C612.065 108.883 611.48 108.204 610.73 107.667C609.981 107.13 608.997 106.862 607.779 106.862ZM596.959 117.804C596.959 113.92 597.872 110.873 599.699 108.662C601.526 106.451 604.188 105.346 607.685 105.346C609.34 105.346 610.769 105.607 611.971 106.128C613.174 106.649 614.181 107.343 614.993 108.212C615.805 109.08 616.406 110.099 616.796 111.267C617.186 112.436 617.382 113.683 617.382 115.01C617.382 115.325 617.374 115.633 617.358 115.933C617.343 116.233 617.319 116.541 617.288 116.857C615.602 116.825 613.931 116.794 612.276 116.762C610.621 116.731 608.95 116.715 607.264 116.715C606.233 116.715 605.211 116.731 604.196 116.762C603.181 116.794 602.158 116.825 601.128 116.857C601.096 117.015 601.081 117.252 601.081 117.568V118.183C601.081 119.415 601.26 120.568 601.619 121.641C601.979 122.715 602.502 123.639 603.189 124.413C603.876 125.186 604.719 125.802 605.718 126.26C606.717 126.718 607.873 126.947 609.184 126.947C609.809 126.947 610.449 126.86 611.105 126.686C611.761 126.513 612.401 126.276 613.025 125.976C613.65 125.676 614.235 125.321 614.782 124.91C615.328 124.5 615.805 124.057 616.211 123.584L616.445 123.726L616.164 126.047C615.227 126.805 614.064 127.452 612.674 127.989C611.284 128.526 609.84 128.794 608.341 128.794C606.655 128.794 605.117 128.534 603.727 128.013C602.338 127.492 601.135 126.734 600.121 125.739C599.106 124.744 598.325 123.568 597.778 122.21C597.232 120.852 596.959 119.383 596.959 117.804Z" fill="black"/>
<path d="M623.103 123.915C623.262 124.231 623.509 124.578 623.843 124.957C624.177 125.336 624.575 125.692 625.036 126.023C625.498 126.355 626.023 126.631 626.612 126.852C627.2 127.073 627.829 127.184 628.497 127.184C629.102 127.184 629.683 127.089 630.239 126.9C630.796 126.71 631.29 126.442 631.719 126.094C632.149 125.747 632.491 125.305 632.746 124.768C633 124.231 633.127 123.615 633.127 122.92C633.127 121.941 632.849 121.191 632.292 120.67C631.735 120.149 631.043 119.723 630.216 119.391C629.388 119.06 628.481 118.768 627.495 118.515C626.508 118.262 625.601 117.907 624.774 117.449C623.947 116.991 623.254 116.383 622.697 115.625C622.141 114.867 621.862 113.825 621.862 112.499C621.862 111.457 622.037 110.501 622.387 109.633C622.737 108.765 623.246 108.015 623.915 107.383C624.583 106.751 625.41 106.254 626.397 105.891C627.383 105.528 628.513 105.346 629.786 105.346C630.963 105.346 631.958 105.504 632.769 105.82C633.581 106.136 634.353 106.42 635.084 106.672C634.83 107.146 634.591 107.73 634.368 108.425C634.146 109.12 634.003 109.657 633.939 110.036H633.366C633.111 109.278 632.618 108.599 631.886 107.999C631.154 107.399 630.247 107.099 629.165 107.099C628.688 107.099 628.211 107.178 627.733 107.336C627.256 107.493 626.826 107.73 626.445 108.046C626.063 108.362 625.745 108.772 625.49 109.278C625.235 109.783 625.108 110.383 625.108 111.078C625.108 112.088 625.387 112.87 625.943 113.423C626.5 113.975 627.192 114.41 628.02 114.725C628.847 115.041 629.754 115.318 630.741 115.554C631.727 115.791 632.634 116.123 633.462 116.549C634.289 116.975 634.981 117.568 635.538 118.326C636.095 119.083 636.373 120.126 636.373 121.452C636.373 122.368 636.174 123.268 635.777 124.152C635.379 125.036 634.806 125.834 634.058 126.544C633.31 127.255 632.411 127.808 631.361 128.202C630.311 128.597 629.118 128.794 627.781 128.794C626.317 128.794 625.092 128.652 624.106 128.368C623.119 128.084 622.292 127.752 621.623 127.373C621.814 126.963 622.013 126.402 622.22 125.692C622.427 124.981 622.53 124.389 622.53 123.915H623.103Z" fill="black"/>
<path d="M642.276 97.5594C642.276 96.8938 642.517 96.3232 642.999 95.8478C643.481 95.3723 644.06 95.1346 644.735 95.1346C645.409 95.1346 645.988 95.3723 646.47 95.8478C646.952 96.3232 647.193 96.8938 647.193 97.5594C647.193 98.225 646.952 98.7956 646.47 99.271C645.988 99.7465 645.409 99.9842 644.735 99.9842C644.06 99.9842 643.481 99.7465 642.999 99.271C642.517 98.7956 642.276 98.225 642.276 97.5594ZM642.951 114.723C642.951 113.297 642.927 111.799 642.879 110.23C642.831 108.661 642.726 107.195 642.565 105.832C643.465 105.991 644.188 106.07 644.735 106.07C645.281 106.07 646.004 105.991 646.904 105.832C646.743 107.195 646.639 108.661 646.59 110.23C646.542 111.799 646.518 113.297 646.518 114.723V119.668C646.518 121.094 646.542 122.592 646.59 124.161C646.639 125.73 646.743 127.148 646.904 128.416C646.165 128.353 645.442 128.321 644.735 128.321C644.028 128.321 643.305 128.353 642.565 128.416C642.726 127.148 642.831 125.73 642.879 124.161C642.927 122.592 642.951 121.094 642.951 119.668V114.723Z" fill="black"/>
<path d="M669.459 133.323C669.459 131.429 668.915 130.104 667.827 129.346C666.739 128.589 664.935 128.21 662.417 128.21C660.085 128.21 658.281 128.597 657.007 129.37C655.732 130.143 655.094 131.54 655.094 133.559C655.094 134.632 655.273 135.548 655.631 136.305C655.988 137.062 656.47 137.678 657.077 138.151C657.683 138.625 658.406 138.972 659.245 139.193C660.085 139.414 660.986 139.524 661.95 139.524C662.883 139.524 663.8 139.398 664.702 139.145C665.604 138.893 666.404 138.514 667.104 138.009C667.804 137.504 668.371 136.865 668.806 136.092C669.242 135.319 669.459 134.396 669.459 133.323ZM666.941 112.825C666.941 110.837 666.474 109.322 665.542 108.281C664.609 107.239 663.381 106.719 661.857 106.719C660.178 106.719 658.872 107.295 657.939 108.447C657.007 109.598 656.54 111.137 656.54 113.062C656.54 115.05 656.968 116.62 657.823 117.772C658.678 118.924 660.007 119.5 661.81 119.5C662.712 119.5 663.482 119.319 664.119 118.956C664.756 118.593 665.285 118.104 665.705 117.488C666.125 116.873 666.435 116.163 666.638 115.358C666.84 114.553 666.941 113.709 666.941 112.825ZM652.902 113.062C652.902 111.737 653.136 110.593 653.602 109.63C654.068 108.667 654.713 107.871 655.537 107.239C656.361 106.608 657.31 106.135 658.382 105.819C659.455 105.504 660.598 105.346 661.81 105.346C662.401 105.346 662.969 105.362 663.513 105.393C664.057 105.425 664.749 105.472 665.588 105.535C666.303 105.598 666.941 105.646 667.5 105.677C668.06 105.709 668.511 105.725 668.853 105.725C670.594 105.725 671.853 105.646 672.631 105.488C672.6 105.646 672.576 105.811 672.561 105.985C672.545 106.159 672.537 106.324 672.537 106.482C672.537 106.64 672.545 106.806 672.561 106.979C672.576 107.153 672.6 107.318 672.631 107.476C671.729 107.413 670.851 107.342 669.996 107.263C669.141 107.184 668.293 107.129 667.454 107.097L667.36 107.192C668.324 107.729 669.102 108.557 669.692 109.677C670.283 110.798 670.579 111.957 670.579 113.157C670.579 115.524 669.793 117.378 668.223 118.719C666.653 120.06 664.547 120.731 661.904 120.731C661.468 120.731 661.041 120.715 660.621 120.683C660.201 120.652 659.774 120.636 659.339 120.636C658.779 120.636 658.258 120.841 657.776 121.252C657.294 121.662 657.053 122.182 657.053 122.814C657.053 123.634 657.248 124.234 657.636 124.613C658.025 124.991 658.748 125.196 659.805 125.228C660.676 125.259 661.531 125.283 662.37 125.299C663.21 125.315 664.065 125.338 664.935 125.37C666.365 125.401 667.586 125.575 668.596 125.891C669.607 126.206 670.431 126.632 671.068 127.169C671.706 127.705 672.172 128.321 672.467 129.015C672.763 129.709 672.911 130.467 672.911 131.287C672.911 132.392 672.701 133.512 672.281 134.648C671.861 135.784 671.208 136.81 670.322 137.725C669.436 138.64 668.293 139.398 666.894 139.997C665.495 140.597 663.816 140.897 661.857 140.897C658.841 140.897 656.462 140.289 654.721 139.074C652.98 137.859 652.109 136.195 652.109 134.08C652.109 133.26 652.257 132.502 652.553 131.808C652.848 131.114 653.229 130.498 653.695 129.962C654.162 129.425 654.69 128.999 655.281 128.684C655.872 128.368 656.478 128.131 657.1 127.974V127.879C656.136 127.595 655.405 127.121 654.908 126.459C654.41 125.796 654.162 125.007 654.162 124.092C654.162 123.555 654.263 123.066 654.465 122.624C654.667 122.182 654.923 121.788 655.234 121.441C655.545 121.094 655.903 120.81 656.307 120.589C656.711 120.368 657.1 120.226 657.473 120.163V120.068C656.043 119.437 654.923 118.545 654.115 117.393C653.307 116.242 652.902 114.798 652.902 113.062Z" fill="black"/>
<path d="M691.952 115.05C691.952 112.671 691.499 110.872 690.594 109.651C689.689 108.43 688.441 107.82 686.85 107.82C684.665 107.82 683.066 108.501 682.052 109.865C681.038 111.229 680.531 113.147 680.531 115.621V119.664C680.531 121.091 680.554 122.589 680.601 124.159C680.648 125.729 680.749 127.148 680.905 128.416C680.187 128.353 679.485 128.321 678.799 128.321C678.112 128.321 677.41 128.353 676.692 128.416C676.848 127.148 676.95 125.729 676.997 124.159C677.044 122.589 677.067 121.091 677.067 119.664V114.717C677.067 113.29 677.044 111.791 676.997 110.222C676.95 108.652 676.848 107.185 676.692 105.822C677.566 105.98 678.268 106.06 678.799 106.06C679.048 106.06 679.321 106.036 679.618 105.988C679.914 105.941 680.265 105.885 680.671 105.822C680.577 107.09 680.531 108.359 680.531 109.627H680.624C681.498 108.263 682.543 107.209 683.76 106.464C684.977 105.719 686.428 105.346 688.113 105.346C688.987 105.346 689.869 105.473 690.758 105.727C691.647 105.98 692.451 106.416 693.169 107.035C693.886 107.653 694.471 108.493 694.924 109.556C695.376 110.618 695.603 111.974 695.603 113.623C695.603 114.986 695.571 116.39 695.509 117.832C695.446 119.275 695.415 120.805 695.415 122.423V125.515C695.415 126.022 695.423 126.521 695.439 127.013C695.454 127.505 695.478 127.972 695.509 128.416C694.885 128.353 694.229 128.321 693.543 128.321C692.888 128.321 692.248 128.353 691.624 128.416C691.686 126.767 691.757 125.071 691.835 123.327C691.913 121.582 691.952 119.791 691.952 117.951V115.05Z" fill="black"/>
<path d="M714.825 111.659C714.825 108.923 715.218 106.486 716.005 104.346C716.792 102.206 717.894 100.396 719.31 98.9155C720.726 97.4353 722.422 96.309 724.396 95.5366C726.37 94.7643 728.531 94.3782 730.877 94.3782C733.252 94.3782 735.426 94.7643 737.401 95.5366C739.375 96.309 741.07 97.4353 742.487 98.9155C743.903 100.396 745.005 102.206 745.792 104.346C746.578 106.486 746.972 108.923 746.972 111.659C746.972 114.394 746.578 116.832 745.792 118.972C745.005 121.112 743.903 122.922 742.487 124.402C741.07 125.882 739.375 126.984 737.401 127.708C735.426 128.432 733.252 128.794 730.877 128.794C728.531 128.794 726.37 128.432 724.396 127.708C722.422 126.984 720.726 125.882 719.31 124.402C717.894 122.922 716.792 121.112 716.005 118.972C715.218 116.832 714.825 114.394 714.825 111.659ZM742.766 111.659C742.766 108.988 742.465 106.679 741.864 104.732C741.264 102.785 740.427 101.176 739.354 99.905C738.281 98.6339 737.022 97.6927 735.577 97.0813C734.132 96.4699 732.565 96.1642 730.877 96.1642C729.217 96.1642 727.665 96.4699 726.22 97.0813C724.775 97.6927 723.516 98.6339 722.443 99.905C721.37 101.176 720.533 102.785 719.932 104.732C719.331 106.679 719.031 108.988 719.031 111.659C719.031 114.33 719.331 116.639 719.932 118.585C720.533 120.532 721.37 122.141 722.443 123.412C723.516 124.683 724.775 125.625 726.22 126.236C727.665 126.848 729.217 127.153 730.877 127.153C732.565 127.153 734.132 126.848 735.577 126.236C737.022 125.625 738.281 124.683 739.354 123.412C740.427 122.141 741.264 120.532 741.864 118.585C742.465 116.639 742.766 114.33 742.766 111.659Z" fill="black"/>
<path d="M762.237 98.2451C761.483 97.7955 760.62 97.5707 759.646 97.5707C758.955 97.5707 758.366 97.6981 757.88 97.9529C757.393 98.2077 756.993 98.5374 756.678 98.9421C756.364 99.3468 756.137 99.8189 755.995 100.358C755.854 100.898 755.783 101.468 755.783 102.067C755.783 102.607 755.838 103.386 755.948 104.405C756.058 105.424 756.192 106.399 756.349 107.328C757.165 107.328 757.974 107.32 758.775 107.305C759.576 107.29 760.384 107.283 761.201 107.283C761.169 107.433 761.146 107.583 761.13 107.733C761.114 107.883 761.107 108.032 761.107 108.182C761.107 108.332 761.114 108.482 761.13 108.632C761.146 108.782 761.169 108.932 761.201 109.082C760.384 109.052 759.576 109.022 758.775 108.992C757.974 108.962 757.165 108.947 756.349 108.947C756.349 112.214 756.357 115.459 756.372 118.681C756.388 121.904 756.443 125.149 756.537 128.416C756.192 128.356 755.846 128.326 755.501 128.326C755.155 128.326 754.826 128.326 754.512 128.326C753.852 128.326 753.161 128.356 752.439 128.416C752.659 125.149 752.784 121.919 752.816 118.726C752.847 115.534 752.863 112.274 752.863 108.947C752.298 108.947 751.732 108.962 751.167 108.992C750.602 109.022 750.036 109.052 749.471 109.082C749.503 108.932 749.526 108.782 749.542 108.632C749.557 108.482 749.565 108.332 749.565 108.182C749.565 108.032 749.557 107.883 749.542 107.733C749.526 107.583 749.503 107.433 749.471 107.283C750.036 107.283 750.61 107.29 751.191 107.305C751.772 107.32 752.329 107.328 752.863 107.328C752.863 106.459 752.957 105.514 753.145 104.495C753.334 103.476 753.609 102.472 753.97 101.483C754.331 100.493 754.763 99.5566 755.265 98.6723C755.768 97.788 756.333 97.0461 756.961 96.4466C757.526 95.907 758.241 95.4274 759.104 95.0077C759.968 94.588 760.855 94.3782 761.766 94.3782C762.111 94.3782 762.426 94.4232 762.708 94.5131C762.677 95.1126 762.637 95.7121 762.59 96.3117C762.543 96.9112 762.52 97.5107 762.52 98.1102L762.237 98.2451Z" fill="black"/>
<path d="M775.704 98.2451C774.95 97.7955 774.087 97.5707 773.113 97.5707C772.422 97.5707 771.833 97.6981 771.347 97.9529C770.86 98.2077 770.459 98.5374 770.145 98.9421C769.831 99.3468 769.604 99.8189 769.462 100.358C769.321 100.898 769.25 101.468 769.25 102.067C769.25 102.607 769.305 103.386 769.415 104.405C769.525 105.424 769.659 106.399 769.816 107.328C770.632 107.328 771.441 107.32 772.242 107.305C773.042 107.29 773.851 107.283 774.668 107.283C774.636 107.433 774.613 107.583 774.597 107.733C774.581 107.883 774.573 108.032 774.573 108.182C774.573 108.332 774.581 108.482 774.597 108.632C774.613 108.782 774.636 108.932 774.668 109.082C773.851 109.052 773.042 109.022 772.242 108.992C771.441 108.962 770.632 108.947 769.816 108.947C769.816 112.214 769.823 115.459 769.839 118.681C769.855 121.904 769.91 125.149 770.004 128.416C769.659 128.356 769.313 128.326 768.968 128.326C768.622 128.326 768.293 128.326 767.978 128.326C767.319 128.326 766.628 128.356 765.906 128.416C766.126 125.149 766.251 121.919 766.283 118.726C766.314 115.534 766.33 112.274 766.33 108.947C765.764 108.947 765.199 108.962 764.634 108.992C764.069 109.022 763.503 109.052 762.938 109.082C762.969 108.932 762.993 108.782 763.009 108.632C763.024 108.482 763.032 108.332 763.032 108.182C763.032 108.032 763.024 107.883 763.009 107.733C762.993 107.583 762.969 107.433 762.938 107.283C763.503 107.283 764.076 107.29 764.657 107.305C765.238 107.32 765.796 107.328 766.33 107.328C766.33 106.459 766.424 105.514 766.612 104.495C766.801 103.476 767.076 102.472 767.437 101.483C767.798 100.493 768.23 99.5566 768.732 98.6723C769.235 97.788 769.8 97.0461 770.428 96.4466C770.993 95.907 771.708 95.4274 772.571 95.0077C773.435 94.588 774.322 94.3782 775.233 94.3782C775.578 94.3782 775.892 94.4232 776.175 94.5131C776.144 95.1126 776.104 95.7121 776.057 96.3117C776.01 96.9112 775.987 97.5107 775.987 98.1102L775.704 98.2451Z" fill="black"/>
<path d="M779.052 97.5594C779.052 96.8938 779.293 96.3232 779.775 95.8478C780.257 95.3723 780.836 95.1346 781.511 95.1346C782.186 95.1346 782.764 95.3723 783.246 95.8478C783.728 96.3232 783.969 96.8938 783.969 97.5594C783.969 98.225 783.728 98.7956 783.246 99.271C782.764 99.7465 782.186 99.9842 781.511 99.9842C780.836 99.9842 780.257 99.7465 779.775 99.271C779.293 98.7956 779.052 98.225 779.052 97.5594ZM779.727 114.723C779.727 113.297 779.703 111.799 779.655 110.23C779.607 108.661 779.502 107.195 779.342 105.832C780.241 105.991 780.964 106.07 781.511 106.07C782.057 106.07 782.78 105.991 783.68 105.832C783.519 107.195 783.415 108.661 783.366 110.23C783.318 111.799 783.294 113.297 783.294 114.723V119.668C783.294 121.094 783.318 122.592 783.366 124.161C783.415 125.73 783.519 127.148 783.68 128.416C782.941 128.353 782.218 128.321 781.511 128.321C780.804 128.321 780.081 128.353 779.342 128.416C779.502 127.148 779.607 125.73 779.655 124.161C779.703 122.592 779.727 121.094 779.727 119.668V114.723Z" fill="black"/>
<path d="M789.264 117.141C789.264 115.089 789.611 113.32 790.304 111.836C790.997 110.351 791.903 109.128 793.022 108.165C794.141 107.201 795.425 106.491 796.875 106.033C798.325 105.575 799.806 105.346 801.319 105.346C803.052 105.346 804.605 105.559 805.976 105.985C807.347 106.412 808.332 106.893 808.93 107.43C808.71 107.904 808.513 108.401 808.339 108.922C808.166 109.444 808.016 109.988 807.89 110.557H807.512C807.291 110.146 806.992 109.728 806.614 109.301C806.236 108.875 805.787 108.48 805.267 108.117C804.747 107.754 804.171 107.454 803.541 107.217C802.911 106.98 802.217 106.862 801.461 106.862C800.043 106.862 798.821 107.122 797.797 107.643C796.773 108.165 795.938 108.883 795.291 109.799C794.645 110.715 794.173 111.796 793.873 113.044C793.574 114.291 793.424 115.641 793.424 117.094C793.424 120.347 794.117 122.802 795.504 124.46C796.891 126.118 798.924 126.947 801.603 126.947C802.233 126.947 802.879 126.86 803.541 126.686C804.203 126.513 804.849 126.276 805.479 125.976C806.11 125.676 806.701 125.321 807.252 124.91C807.804 124.5 808.284 124.057 808.694 123.584L808.93 123.726C808.773 124.484 808.678 125.257 808.647 126.047C807.701 126.805 806.527 127.452 805.125 127.989C803.722 128.526 802.265 128.794 800.752 128.794C799.397 128.794 798.033 128.597 796.662 128.202C795.291 127.808 794.054 127.144 792.951 126.213C791.848 125.281 790.958 124.073 790.28 122.589C789.603 121.105 789.264 119.289 789.264 117.141Z" fill="black"/>
<path d="M822.398 106.862C821.243 106.862 820.267 107.13 819.47 107.667C818.674 108.204 818.018 108.875 817.503 109.68C816.988 110.486 816.598 111.37 816.332 112.333C816.067 113.296 815.903 114.204 815.84 115.057C816.808 115.089 817.815 115.12 818.862 115.152C819.908 115.183 820.93 115.199 821.93 115.199C822.96 115.199 824.006 115.183 825.068 115.152C826.13 115.12 827.16 115.089 828.16 115.057C828.16 114.204 828.089 113.304 827.949 112.357C827.808 111.409 827.527 110.525 827.106 109.704C826.684 108.883 826.099 108.204 825.349 107.667C824.6 107.13 823.616 106.862 822.398 106.862ZM811.578 117.804C811.578 113.92 812.491 110.873 814.318 108.662C816.145 106.451 818.807 105.346 822.304 105.346C823.959 105.346 825.388 105.607 826.59 106.128C827.793 106.649 828.8 107.343 829.612 108.212C830.424 109.08 831.025 110.099 831.415 111.267C831.805 112.436 832.001 113.683 832.001 115.01C832.001 115.325 831.993 115.633 831.977 115.933C831.961 116.233 831.938 116.541 831.907 116.857C830.221 116.825 828.55 116.794 826.895 116.762C825.24 116.731 823.569 116.715 821.883 116.715C820.852 116.715 819.83 116.731 818.815 116.762C817.8 116.794 816.777 116.825 815.747 116.857C815.715 117.015 815.7 117.252 815.7 117.568V118.183C815.7 119.415 815.879 120.568 816.238 121.641C816.598 122.715 817.121 123.639 817.808 124.413C818.495 125.186 819.338 125.802 820.337 126.26C821.336 126.718 822.492 126.947 823.803 126.947C824.428 126.947 825.068 126.86 825.724 126.686C826.38 126.513 827.02 126.276 827.644 125.976C828.269 125.676 828.854 125.321 829.401 124.91C829.947 124.5 830.424 124.057 830.829 123.584L831.064 123.726L830.783 126.047C829.846 126.805 828.683 127.452 827.293 127.989C825.903 128.526 824.459 128.794 822.96 128.794C821.274 128.794 819.736 128.534 818.346 128.013C816.957 127.492 815.754 126.734 814.739 125.739C813.725 124.744 812.944 123.568 812.397 122.21C811.851 120.852 811.578 119.383 811.578 117.804Z" fill="black"/>
<path d="M145.052 30.1654C161.24 30.1654 169.657 30.2018 170.422 30.2987C178.85 31.2314 186.527 36.0505 191.17 43.3032C192.217 44.938 193.757 48.0859 194.309 49.7207C194.815 51.2098 195.415 53.6441 195.732 55.533C196.096 57.6396 196.132 62.0473 195.802 64.191C195.356 67.1082 194.556 69.9539 193.474 72.4603C191.206 77.6915 187.432 82.2928 182.8 85.4408C180.061 87.2933 176.582 88.8559 173.725 89.4851C171.268 90.0421 171.48 90.0304 162.498 90.1026L153.904 90.1637C165.049 100.493 176.126 110.897 187.221 121.282L177.122 121.343C171.716 116.352 144.447 90.178 144.182 90.4783L143.948 89.7613C144.555 87.836 145.042 85.8555 145.4 83.8288C160.036 83.8281 161.628 83.8197 160.256 83.8125C165.177 83.806 166.553 83.6994 168.611 83.3322C171.202 82.8596 174.548 81.7085 176.816 80.4852C179.338 79.128 182.482 76.5845 184.209 74.5019C188.001 69.9467 189.876 64.2176 189.458 58.5607C189.216 55.3139 188.499 52.8914 186.907 49.9729C182.725 42.3048 175.547 37.6775 166.52 36.8299C165.556 36.7447 137.341 36.6817 125.25 36.7109C123.83 35.7925 122.357 34.9533 120.835 34.2013V30.1654H145.052Z" fill="black"/>
<path d="M60.7425 94.2021C63.3171 100.272 67.1301 105.656 71.853 110.017L71.8523 119.022L8.45 37.2316V121.417H0V30.1329L11.0645 30.1173L60.7425 94.2021ZM71.8523 30.1329H71.8575L71.8568 41.6945C67.5883 45.6354 64.0627 50.4116 61.5225 55.7748V30.1329L71.8523 30.1303V30.1329Z" fill="black"/>
<path d="M59.345 109.567L11.05 48.1737" stroke="black" stroke-width="2.454"/>
<path d="M213.549 20.8769L225.364 0.413513H201.734L213.549 20.8769Z" fill="black"/>
<path d="M213.549 24.9934V121.62" stroke="black" stroke-width="8.45"/>
<path d="M101.562 118.538C124.448 118.538 143 99.4294 143 75.8572C143 52.2856 124.448 33.1769 101.562 33.1769C78.6773 33.1769 60.125 52.2856 60.125 75.8572C60.125 99.4294 78.6773 118.538 101.562 118.538Z" stroke="black" stroke-width="3.97126"/>
<path d="M101.562 109.4C119.547 109.4 134.127 94.3822 134.127 75.8578C134.127 57.3328 119.547 42.3159 101.562 42.3159C83.5776 42.3159 68.9975 57.3328 68.9975 75.8578C68.9975 94.3822 83.5776 109.4 101.562 109.4Z" stroke="black" stroke-width="1.51726"/>
<path d="M4.53165 135.908C6.60372 135.908 8.28345 134.178 8.28345 132.044C8.28345 129.91 6.60372 128.18 4.53165 128.18C2.45958 128.18 0.779846 129.91 0.779846 132.044C0.779846 134.178 2.45958 135.908 4.53165 135.908Z" fill="black"/>
<path d="M19.7729 135.908C21.8449 135.908 23.5247 134.178 23.5247 132.044C23.5247 129.91 21.8449 128.18 19.7729 128.18C17.7008 128.18 16.0211 129.91 16.0211 132.044C16.0211 134.178 17.7008 135.908 19.7729 135.908Z" fill="black"/>
<path d="M35.0141 135.908C37.0861 135.908 38.7659 134.178 38.7659 132.044C38.7659 129.91 37.0861 128.18 35.0141 128.18C32.942 128.18 31.2623 129.91 31.2623 132.044C31.2623 134.178 32.942 135.908 35.0141 135.908Z" fill="black"/>
<path d="M50.2553 135.908C52.3274 135.908 54.0071 134.178 54.0071 132.044C54.0071 129.91 52.3274 128.18 50.2553 128.18C48.1832 128.18 46.5035 129.91 46.5035 132.044C46.5035 134.178 48.1832 135.908 50.2553 135.908Z" fill="black"/>
<path d="M65.4966 135.908C67.5688 135.908 69.2484 134.178 69.2484 132.044C69.2484 129.91 67.5688 128.18 65.4966 128.18C63.4244 128.18 61.7448 129.91 61.7448 132.044C61.7448 134.178 63.4244 135.908 65.4966 135.908Z" fill="black"/>
<path d="M80.7378 135.908C82.81 135.908 84.4896 134.178 84.4896 132.044C84.4896 129.91 82.81 128.18 80.7378 128.18C78.6656 128.18 76.986 129.91 76.986 132.044C76.986 134.178 78.6656 135.908 80.7378 135.908Z" fill="black"/>
<path d="M95.979 135.908C98.0512 135.908 99.7308 134.178 99.7308 132.044C99.7308 129.91 98.0512 128.18 95.979 128.18C93.9068 128.18 92.2272 129.91 92.2272 132.044C92.2272 134.178 93.9068 135.908 95.979 135.908Z" fill="black"/>
<path d="M111.22 135.908C113.292 135.908 114.972 134.178 114.972 132.044C114.972 129.91 113.292 128.18 111.22 128.18C109.148 128.18 107.468 129.91 107.468 132.044C107.468 134.178 109.148 135.908 111.22 135.908Z" fill="black"/>
<path d="M126.461 135.908C128.534 135.908 130.213 134.178 130.213 132.044C130.213 129.91 128.534 128.18 126.461 128.18C124.389 128.18 122.71 129.91 122.71 132.044C122.71 134.178 124.389 135.908 126.461 135.908Z" fill="black"/>
<path d="M141.703 135.908C143.775 135.908 145.454 134.178 145.454 132.044C145.454 129.91 143.775 128.18 141.703 128.18C139.63 128.18 137.951 129.91 137.951 132.044C137.951 134.178 139.63 135.908 141.703 135.908Z" fill="black"/>
<path d="M156.944 135.908C159.016 135.908 160.696 134.178 160.696 132.044C160.696 129.91 159.016 128.18 156.944 128.18C154.872 128.18 153.192 129.91 153.192 132.044C153.192 134.178 154.872 135.908 156.944 135.908Z" fill="black"/>
<path d="M172.185 135.908C174.257 135.908 175.937 134.178 175.937 132.044C175.937 129.91 174.257 128.18 172.185 128.18C170.113 128.18 168.433 129.91 168.433 132.044C168.433 134.178 170.113 135.908 172.185 135.908Z" fill="black"/>
<path d="M187.426 135.908C189.498 135.908 191.178 134.178 191.178 132.044C191.178 129.91 189.498 128.18 187.426 128.18C185.354 128.18 183.674 129.91 183.674 132.044C183.674 134.178 185.354 135.908 187.426 135.908Z" fill="black"/>
<path d="M202.667 135.908C204.74 135.908 206.419 134.178 206.419 132.044C206.419 129.91 204.74 128.18 202.667 128.18C200.595 128.18 198.916 129.91 198.916 132.044C198.916 134.178 200.595 135.908 202.667 135.908Z" fill="black"/>
<path d="M217.909 135.908C219.981 135.908 221.66 134.178 221.66 132.044C221.66 129.91 219.981 128.18 217.909 128.18C215.836 128.18 214.157 129.91 214.157 132.044C214.157 134.178 215.836 135.908 217.909 135.908Z" fill="black"/>
</g>
<defs>
<clipPath id="clip0_3_156">
<rect width="832.001" height="141" fill="white"/>
</clipPath>
</defs>
</svg>
