<svg width="3704" height="3704" viewBox="0 0 3704 3704" fill="none" xmlns="http://www.w3.org/2000/svg">
<g clip-path="url(#clip0_331_285)">
<path d="M3704 0H0V3704H3704V0Z" fill="white"/>
<path d="M2781.87 1152.05C2770.11 1150.56 2640.62 1150 2391.57 1150H2019V1251.04C2121.71 1249.94 2704.62 1251.01 2721.85 1252.53C2860.73 1265.57 2971.15 1336.76 3035.5 1454.73C3059.99 1499.63 3071.01 1536.9 3074.74 1586.84C3081.17 1673.88 3052.32 1762.02 2993.99 1832.1C2967.42 1864.14 2919.05 1903.27 2880.24 1924.15C2845.35 1942.97 2793.88 1960.68 2754.02 1967.95C2722.36 1973.59 2701.18 1975.24 2625.48 1975.34C2646.89 1975.45 2621.39 1975.59 2387.12 1975.59C2376.12 1975.59 2378.19 1975.59 2344.62 1975.34L2378.19 2077.89C2382.26 2073.27 2801.78 2475.95 2884.96 2552.73L3040.32 2551.8C2869.63 2392.01 2699.22 2231.97 2527.76 2073.04L2659.97 2072.11C2798.15 2070.99 2794.89 2071.18 2832.69 2062.61C2876.64 2052.93 2930.17 2028.89 2972.31 2000.39C3043.57 1951.96 3101.63 1881.17 3136.53 1800.69C3153.17 1762.13 3165.47 1718.35 3172.34 1673.47C3177.41 1640.49 3176.86 1572.68 3171.26 1540.27C3166.38 1511.21 3157.15 1473.76 3149.37 1450.85C3140.87 1425.7 3117.18 1377.27 3101.08 1352.12C3029.65 1240.54 2911.54 1166.4 2781.87 1152.05Z" fill="black"/>
<path d="M1216 1149.46V2372.59L306 1198.68H225V2553.87" stroke="#1E1E1E" stroke-width="98.8502"/>
<path d="M1186 1149.5V2289.5" stroke="#1E1E1E" stroke-width="159"/>
<path d="M225 1149.5L225 2553.87" stroke="#1E1E1E" stroke-width="130"/>
<path d="M1722.5 2558.5C2100.82 2558.5 2407.5 2242.62 2407.5 1852.96C2407.5 1463.29 2100.82 1147.41 1722.5 1147.41C1344.18 1147.41 1037.5 1463.29 1037.5 1852.96C1037.5 2242.62 1344.18 2558.5 1722.5 2558.5Z" fill="white"/>
<path d="M1073 2371.56L330 1427.05" stroke="#1E1E1E" stroke-width="37.7539"/>
<path d="M3445.37 1007.1L3627.14 692.278H3263.6L3445.37 1007.1Z" fill="black"/>
<path d="M3445.37 1070.43V2556.99" stroke="black" stroke-width="130"/>
<path d="M1722.5 2509.58C2074.58 2509.58 2360 2215.6 2360 1852.95C2360 1490.31 2074.58 1196.33 1722.5 1196.33C1370.42 1196.33 1085 1490.31 1085 1852.95C1085 2215.6 1370.42 2509.58 1722.5 2509.58Z" fill="white" stroke="black" stroke-width="61.0963"/>
<path d="M1722.5 2368.99C1999.19 2368.99 2223.5 2137.95 2223.5 1852.96C2223.5 1567.96 1999.19 1336.93 1722.5 1336.93C1445.81 1336.93 1221.5 1567.96 1221.5 1852.96C1221.5 2137.95 1445.81 2368.99 1722.5 2368.99Z" stroke="black" stroke-width="23.3424"/>
<path d="M229.718 2776.81C261.596 2776.81 287.438 2750.2 287.438 2717.36C287.438 2684.53 261.596 2657.91 229.718 2657.91C197.84 2657.91 171.998 2684.53 171.998 2717.36C171.998 2750.2 197.84 2776.81 229.718 2776.81Z" fill="black"/>
<path d="M464.198 2776.81C496.076 2776.81 521.918 2750.2 521.918 2717.36C521.918 2684.53 496.076 2657.91 464.198 2657.91C432.32 2657.91 406.478 2684.53 406.478 2717.36C406.478 2750.2 432.32 2776.81 464.198 2776.81Z" fill="black"/>
<path d="M698.678 2776.81C730.556 2776.81 756.398 2750.2 756.398 2717.36C756.398 2684.53 730.556 2657.91 698.678 2657.91C666.8 2657.91 640.958 2684.53 640.958 2717.36C640.958 2750.2 666.8 2776.81 698.678 2776.81Z" fill="black"/>
<path d="M933.158 2776.81C965.036 2776.81 990.878 2750.2 990.878 2717.36C990.878 2684.53 965.036 2657.91 933.158 2657.91C901.28 2657.91 875.438 2684.53 875.438 2717.36C875.438 2750.2 901.28 2776.81 933.158 2776.81Z" fill="black"/>
<path d="M1167.64 2776.81C1199.52 2776.81 1225.36 2750.2 1225.36 2717.36C1225.36 2684.53 1199.52 2657.91 1167.64 2657.91C1135.76 2657.91 1109.92 2684.53 1109.92 2717.36C1109.92 2750.2 1135.76 2776.81 1167.64 2776.81Z" fill="black"/>
<path d="M1402.12 2776.81C1434 2776.81 1459.84 2750.2 1459.84 2717.36C1459.84 2684.53 1434 2657.91 1402.12 2657.91C1370.24 2657.91 1344.4 2684.53 1344.4 2717.36C1344.4 2750.2 1370.24 2776.81 1402.12 2776.81Z" fill="black"/>
<path d="M1636.6 2776.81C1668.48 2776.81 1694.32 2750.2 1694.32 2717.36C1694.32 2684.53 1668.48 2657.91 1636.6 2657.91C1604.72 2657.91 1578.88 2684.53 1578.88 2717.36C1578.88 2750.2 1604.72 2776.81 1636.6 2776.81Z" fill="black"/>
<path d="M1871.08 2776.81C1902.96 2776.81 1928.8 2750.2 1928.8 2717.36C1928.8 2684.53 1902.96 2657.91 1871.08 2657.91C1839.2 2657.91 1813.36 2684.53 1813.36 2717.36C1813.36 2750.2 1839.2 2776.81 1871.08 2776.81Z" fill="black"/>
<path d="M2105.56 2776.81C2137.44 2776.81 2163.28 2750.2 2163.28 2717.36C2163.28 2684.53 2137.44 2657.91 2105.56 2657.91C2073.68 2657.91 2047.84 2684.53 2047.84 2717.36C2047.84 2750.2 2073.68 2776.81 2105.56 2776.81Z" fill="black"/>
<path d="M2340.04 2776.81C2371.92 2776.81 2397.76 2750.2 2397.76 2717.36C2397.76 2684.53 2371.92 2657.91 2340.04 2657.91C2308.16 2657.91 2282.32 2684.53 2282.32 2717.36C2282.32 2750.2 2308.16 2776.81 2340.04 2776.81Z" fill="black"/>
<path d="M2574.52 2776.81C2606.4 2776.81 2632.24 2750.2 2632.24 2717.36C2632.24 2684.53 2606.4 2657.91 2574.52 2657.91C2542.64 2657.91 2516.8 2684.53 2516.8 2717.36C2516.8 2750.2 2542.64 2776.81 2574.52 2776.81Z" fill="black"/>
<path d="M2809 2776.81C2840.88 2776.81 2866.72 2750.2 2866.72 2717.36C2866.72 2684.53 2840.88 2657.91 2809 2657.91C2777.12 2657.91 2751.28 2684.53 2751.28 2717.36C2751.28 2750.2 2777.12 2776.81 2809 2776.81Z" fill="black"/>
<path d="M3043.48 2776.81C3075.36 2776.81 3101.2 2750.2 3101.2 2717.36C3101.2 2684.53 3075.36 2657.91 3043.48 2657.91C3011.6 2657.91 2985.76 2684.53 2985.76 2717.36C2985.76 2750.2 3011.6 2776.81 3043.48 2776.81Z" fill="black"/>
<path d="M3277.96 2776.81C3309.84 2776.81 3335.68 2750.2 3335.68 2717.36C3335.68 2684.53 3309.84 2657.91 3277.96 2657.91C3246.08 2657.91 3220.24 2684.53 3220.24 2717.36C3220.24 2750.2 3246.08 2776.81 3277.96 2776.81Z" fill="black"/>
<path d="M3512.44 2776.81C3544.32 2776.81 3570.16 2750.2 3570.16 2717.36C3570.16 2684.53 3544.32 2657.91 3512.44 2657.91C3480.56 2657.91 3454.72 2684.53 3454.72 2717.36C3454.72 2750.2 3480.56 2776.81 3512.44 2776.81Z" fill="black"/>
</g>
<defs>
<clipPath id="clip0_331_285">
<rect width="3704" height="3704" fill="white"/>
</clipPath>
</defs>
</svg>
